<svg width="128" height="112" viewBox="0 0 128 112" fill="none" xmlns="http://www.w3.org/2000/svg">
<g clip-path="url(#clip0_186_381)">
<path d="M67.2643 59.5877C68.1643 59.3177 67.1743 58.2377 67.9843 57.9277C67.8743 57.0677 68.2343 56.2777 68.3843 55.4577C68.5643 54.4777 68.0943 53.4377 68.6443 52.4977C68.6843 53.5477 68.7443 54.5977 68.7643 55.6477C68.7843 56.5777 67.9143 60.0177 67.4243 61.1177C67.0243 62.0177 66.5943 62.9077 66.2343 63.8277C65.4443 65.8477 64.0043 67.4377 62.7643 69.1677C62.1443 70.0377 61.6043 70.9377 60.5443 71.4577C59.8843 71.7777 59.8543 73.0577 58.7043 72.8677C58.6843 72.8677 58.6443 73.0877 58.5943 73.1777C57.8943 74.3677 56.6943 74.9577 55.5543 75.6177C55.3843 75.7177 55.0243 75.7777 54.9343 75.6777C54.2543 74.9577 53.9043 75.9777 53.3643 75.9377C53.0043 77.4677 51.5043 77.1677 50.5143 77.6177C50.0943 77.8077 49.4443 78.0277 48.7543 77.7477C48.2543 77.5377 47.4843 77.8777 46.8643 78.0677C44.8043 78.6877 42.3543 78.6477 40.5443 77.6777C39.5643 77.1577 38.4943 76.7577 37.6343 76.0777C36.4343 75.1277 35.5243 73.9077 35.5943 72.2277C35.6043 71.9777 35.7043 71.6177 35.5743 71.4877C35.0343 70.9377 35.0843 70.4377 35.5643 69.9077C34.9443 69.4277 35.7843 69.0277 35.6443 68.4977C35.5243 68.0477 35.8443 67.4877 35.9743 66.9677C36.1043 66.4577 36.1643 65.9177 36.3643 65.4377C36.6943 64.6277 37.0943 63.8577 37.4843 63.0777C37.6443 62.7677 37.8443 62.2777 38.0843 62.2477C38.8143 62.1577 38.5543 61.9877 38.2743 61.6377C38.2043 61.5477 38.3843 61.2077 38.5043 61.0177C39.3443 59.7177 40.2543 58.4677 41.1343 57.1977C42.6843 54.9777 44.8543 53.3677 46.6243 51.3777C48.3043 50.7077 49.4943 49.2877 51.0643 48.4477C52.6043 47.6277 54.1643 46.8377 55.7243 46.0477C56.3943 45.7077 57.0943 45.4177 57.7843 45.1077C57.5543 44.4077 57.3143 43.7077 57.0943 42.9977C56.4443 40.9077 54.2143 36.7377 52.9843 35.2777C52.6043 34.8177 52.2743 34.3177 51.9143 33.8377C51.5543 33.3577 51.2543 32.8177 50.8343 32.4077C50.2743 31.8677 49.6243 31.4177 49.0043 30.9277C48.3943 30.4377 47.8243 29.8777 47.1543 29.4777C44.4943 27.8777 41.6543 26.7577 38.6243 25.9477C35.9543 25.2277 33.3043 25.2877 30.6343 25.2877C29.9943 25.2877 29.3043 25.3977 28.7343 25.6677C27.7443 26.1377 26.6543 26.0977 25.6343 26.3777C25.3143 26.4677 25.2143 26.5477 25.0243 26.8377C24.4043 27.7577 24.3843 27.7377 24.2943 28.3977C24.1743 29.3377 24.1343 30.3477 23.7643 31.1877C23.5043 31.7677 23.6743 32.2777 23.5543 32.7977C22.9943 32.8277 23.2343 33.2677 23.2143 33.7177C23.1543 33.7577 23.0743 33.6477 23.0043 33.5477C22.9343 33.6377 22.8143 33.7277 22.8143 33.8077C22.8143 33.9677 22.9043 34.1177 22.9543 34.2677C23.0443 34.1577 23.1243 34.0377 23.2143 33.7177C23.3043 33.5477 23.4243 33.5477 23.5543 33.5477C23.5843 34.1877 23.6343 34.8477 22.7143 35.0577C22.6843 35.0577 22.7443 35.0577 22.7943 35.0577C22.7643 34.9577 22.7443 34.8477 22.6843 34.7677C22.6643 34.7477 22.5343 34.8077 22.4543 34.8277C22.5143 34.8977 22.5743 34.9777 22.7143 35.0477C22.8643 35.4477 22.5543 35.7177 22.4543 36.0377C22.2243 36.8377 21.4443 37.1177 21.0743 37.7377C20.7043 38.3477 20.3743 38.8677 19.6643 39.2577C18.6643 39.7877 17.9043 40.7477 17.0343 41.5077C16.3243 42.1277 15.4143 42.2277 14.7143 42.8477C14.1243 43.3677 13.2543 43.8977 12.2843 43.7277C12.2243 43.7177 12.1343 43.6977 12.1043 43.7277C11.7343 44.1077 11.3543 44.3477 10.7543 44.3177C10.2543 44.2877 9.74432 44.5877 9.22432 44.6777C8.62432 44.7777 8.01432 44.8277 7.41432 44.8577C6.85432 44.8877 6.28432 44.8577 5.71432 44.8577C5.08432 44.8577 4.44432 44.9477 3.83432 44.8377C2.42432 44.5877 1.19431 43.8977 0.0643158 43.0277C-0.405684 42.6677 -0.935684 42.3677 -1.30568 41.9277C-3.15568 39.6977 -2.56568 36.5977 -1.41568 34.5477C-0.245684 32.4677 1.47432 30.8977 3.16432 29.3077C4.06432 28.4577 5.14432 27.7877 6.22432 27.1677C7.93431 26.1777 9.68431 25.2377 11.4743 24.3677C12.8243 23.7077 14.2543 23.2077 15.6443 22.6277C15.9143 22.5177 16.1543 22.3177 16.4343 22.2677C16.9243 22.1677 16.8243 21.7777 16.7543 21.5477C16.4543 20.6077 16.1243 19.6677 15.7243 18.7777C14.9343 17.0177 14.1343 15.2577 12.9543 13.7077C12.6843 13.3477 12.7043 12.7177 12.3843 12.4577C11.7043 11.8977 10.8243 11.5577 10.5643 10.5877C9.54432 10.3977 9.20432 9.3777 8.45432 8.8577C7.77431 8.3877 7.08432 7.9377 6.36432 7.5277C5.60432 7.0977 4.82432 6.7077 4.03432 6.3277C1.17432 4.9177 -1.84568 4.2077 -5.02568 4.5777C-6.89568 4.7877 -8.54568 5.7477 -10.2357 6.5377C-10.3057 6.5677 -10.2457 6.9477 -10.2057 7.1577C-10.1657 7.3777 -9.99568 7.7477 -10.0357 7.7777C-10.3557 7.9577 -10.7957 8.2577 -11.0457 8.1577C-11.6657 7.8977 -12.1457 7.7977 -12.7457 8.2277C-12.9557 8.3777 -13.4757 8.2977 -13.7357 8.1377C-14.5257 7.6477 -15.1857 6.9977 -15.7057 6.2077C-16.1257 5.5777 -16.0757 5.0577 -15.6857 4.3877C-14.9157 3.0977 -13.9157 2.0877 -12.6157 1.3777C-12.3357 1.2277 -11.8657 1.1477 -11.6257 1.2877C-11.2657 1.4977 -11.1957 1.6077 -11.0957 1.1077C-11.0457 0.847696 -10.6857 0.427696 -10.5357 0.457696C-9.57568 0.647696 -8.77568 0.0176959 -7.85568 0.0376959C-6.78568 0.0576959 -5.70568 -0.0823041 -4.65568 0.0776959C-3.49568 0.257696 -2.31568 0.417696 -1.16568 0.697696C0.034317 0.987696 1.25431 1.1477 2.45432 1.5277C5.86432 2.6277 9.68431 4.3377 12.3143 6.3677C13.9143 7.5977 15.8543 8.5077 16.8143 10.4477C17.7943 10.6977 18.0743 11.6377 18.6743 12.2677C20.1743 13.8377 20.9543 15.8577 22.1443 17.6177C22.4343 18.0477 22.3743 18.4177 22.4143 18.8277C22.5043 19.7877 23.0843 20.3977 24.0443 20.3777C24.8843 20.3677 25.7743 20.6277 26.5243 20.0177H34.0643C34.7643 20.5177 35.5743 20.3377 36.3543 20.4077C37.1243 20.4777 37.8943 20.6177 38.6443 20.7777C39.6743 20.9977 40.6943 21.2877 41.7243 21.5177C44.5743 22.1777 47.2443 23.3177 49.8943 24.5377C51.5643 25.3077 53.0243 26.4177 54.5243 27.4577C55.1743 27.8977 55.7543 28.4277 56.3743 28.9177C56.9843 29.4077 57.6443 29.8477 58.2043 30.3977C58.7043 30.8977 59.0743 31.5277 59.5343 32.0677C60.4043 33.0977 61.2743 34.1277 62.2043 35.1077C63.0743 36.0277 63.7143 37.0777 64.2743 38.2077C64.8643 39.4077 65.5643 40.5577 65.9343 41.8577C66.0943 42.4477 66.4143 42.7377 67.0943 42.6477C68.2943 42.4877 69.5143 42.8577 70.7243 42.3077C71.1543 42.1077 71.9943 42.7477 72.3743 42.5277C72.9343 42.1977 73.5443 42.1277 73.9543 42.3077C75.0343 42.7777 76.1243 42.5677 77.2043 42.6377C78.6343 42.7277 79.9943 43.2177 81.3943 43.4677C82.1443 43.6077 82.9943 43.7777 83.7443 44.1277C84.5343 44.4977 85.3543 44.7977 86.1643 45.1177C86.9143 45.4177 87.7143 45.6477 88.4243 46.0377C90.4543 47.1677 92.4643 48.3477 94.1243 50.0377C94.8443 50.7677 95.8043 51.2877 96.4643 52.0677C97.3343 53.1077 97.9643 54.3377 98.7643 55.4277C99.5043 56.4277 99.8943 57.6077 100.484 58.6677C101.554 60.5777 102.214 62.6077 102.754 64.7077C102.864 65.1277 103.554 63.9377 103.484 64.9777C103.464 65.3177 103.614 65.6677 103.684 66.0177C103.704 66.1077 103.764 66.2077 103.734 66.2777C103.364 67.2977 103.344 67.3077 104.024 68.2277C104.244 68.5177 104.224 69.0077 104.044 68.9377C103.674 68.7977 103.474 68.4077 103.464 69.1577C103.444 70.1877 103.434 70.1877 104.224 70.8877C103.804 70.8877 103.204 70.8077 103.564 71.5177C104.134 72.6477 103.934 73.8177 103.694 74.9177C103.594 75.3877 103.504 75.8477 103.484 76.3177C103.454 77.1977 103.654 78.1277 103.424 78.9377C103.204 79.7077 103.034 80.5277 102.804 81.2977C102.584 82.0577 102.474 82.9277 102.354 83.7477C102.324 83.9577 102.454 84.1977 102.504 84.4277C102.574 84.2177 102.624 83.9977 102.724 83.8077C102.814 83.6277 102.964 83.4777 103.094 83.3177C103.274 85.2377 102.394 86.9177 101.724 88.5877C100.814 90.8477 99.9043 93.1177 98.6043 95.2077C98.2843 95.7177 98.3043 96.4477 97.5343 96.6077C97.5343 97.3377 97.1443 97.8677 96.6043 98.2877C96.0943 98.6877 96.5143 99.5077 95.8143 99.8577C95.2943 100.118 95.2943 100.748 95.0843 101.238C94.8843 101.698 94.7943 102.458 94.0043 102.558C93.8743 102.578 93.7843 102.898 93.6743 103.078C93.8843 103.128 94.1543 103.298 94.2843 103.218C95.1443 102.708 96.0943 102.418 96.9843 101.998C99.1943 100.958 101.464 100.088 103.694 99.1077C104.224 98.8777 104.884 98.3177 105.254 98.4677C105.884 98.7177 106.324 98.3677 106.854 98.3877C107.734 98.4277 108.614 98.3877 109.494 98.3977C110.254 98.4177 111.634 99.5777 111.764 100.288C111.904 101.048 111.754 101.428 111.044 101.778C110.004 102.288 108.924 102.728 107.874 103.228C104.884 104.638 101.854 105.988 98.8143 107.278C96.4243 108.298 94.0343 109.368 91.5443 110.188C91.1343 110.328 90.7443 110.378 90.3443 110.458C89.8843 110.548 89.3743 110.908 89.0143 110.778C88.5443 110.618 88.3643 111.518 87.9343 110.948C87.9043 110.918 87.7343 110.948 87.6843 110.988C86.8143 111.748 86.0043 111.638 85.2143 110.858C85.0643 110.708 84.7743 110.698 84.5843 110.578C84.1843 110.328 83.7743 110.078 83.4143 109.778C82.5243 109.058 82.4543 107.908 82.0443 106.958C81.7043 106.158 81.7443 105.198 81.6243 104.308C81.5943 104.128 81.6243 103.928 81.5343 103.778C80.5843 101.868 80.3143 99.7577 79.6943 97.7577C79.2143 96.1977 78.8343 94.6077 78.3643 93.0377C77.8843 91.4077 77.4943 89.7477 77.1143 88.0977C77.0243 87.7077 77.1143 87.3077 77.3943 86.8977C77.6243 86.5477 77.4543 85.6877 77.9743 85.7077C78.4643 85.7277 79.0243 86.2377 78.9943 86.9777C78.9943 87.1377 79.1143 87.2977 79.1743 87.4577C79.2343 87.2977 79.3343 87.1377 79.3543 86.9677C79.3943 86.5477 79.2243 86.0677 79.7143 85.7977C79.9043 85.6977 80.2043 85.5677 80.3343 85.6477C80.5243 85.7577 80.5743 86.1377 80.7643 86.2277C80.8943 86.2877 81.1643 85.9877 81.3743 85.9677C81.7843 85.9277 83.3743 87.0277 83.4943 87.4177C83.7943 88.3777 84.2843 89.2277 84.7943 90.0877C85.1143 90.6277 85.3443 91.2377 85.1143 91.8977C86.1543 91.8677 85.4843 93.0777 86.1343 93.3377C86.1743 93.3577 86.1343 93.5777 86.1343 93.6977C86.1543 94.1277 86.6043 95.2577 86.8343 95.5077C87.1743 95.8877 87.4843 95.8077 87.7343 95.4477C87.8643 95.2677 87.9143 95.0177 88.0143 94.8177C88.5143 93.8277 89.0243 92.8577 89.5143 91.8577C90.0243 90.8177 90.6943 89.8077 90.9743 88.7077C91.2543 87.6177 91.8443 86.6777 92.1643 85.6177C92.4743 84.5577 92.8443 83.5177 93.1943 82.4677C93.4343 81.7377 93.2843 80.9577 93.5843 80.1877C93.8143 79.5877 93.9143 78.8177 94.0443 78.1177C94.1743 77.4177 93.6943 76.6077 94.3943 75.9977C93.4543 75.3977 94.5743 74.8577 94.4543 74.2477C94.3243 73.5877 94.5143 72.8577 94.4043 72.1877C94.0343 69.9377 94.3243 67.5777 93.2943 65.4277C93.4943 63.7477 92.3343 62.4277 92.0043 60.8577C91.7143 59.4377 90.6243 58.1877 89.9743 56.8177C88.7843 54.3377 86.9443 52.3377 84.8543 50.6977C83.4343 49.5777 81.6043 48.7977 79.8343 48.3477C77.9943 47.8877 76.0943 47.3877 74.1443 47.5277C73.0643 47.6077 71.9443 47.6277 70.9343 47.9577C70.4043 48.1277 69.9143 48.2277 69.3743 48.2777C68.4143 48.3777 68.0243 48.8077 68.0443 49.7177C68.0443 49.9577 68.1043 50.1977 68.1243 50.4377C68.3443 50.4077 68.5643 50.3777 68.7843 50.3477C68.7843 50.5977 68.7843 50.8477 68.7843 51.0977C68.7843 51.2977 68.7843 51.2877 68.3843 51.0877C68.3043 51.0477 68.1543 51.1377 68.0343 51.1677C68.2743 51.5177 67.2943 51.8177 67.9943 52.1877C67.9043 53.4477 68.2243 54.6977 67.7343 55.9977C67.3243 57.0977 67.4143 58.3777 67.2743 59.5777C66.5443 59.7577 67.0443 60.3377 66.9343 60.8777C66.8743 60.9177 66.7943 60.8077 66.7243 60.7077C66.6543 60.7977 66.5343 60.8877 66.5343 60.9677C66.5343 61.1277 66.6243 61.2777 66.6743 61.4277C66.7643 61.3177 66.8443 61.1977 66.9343 60.8777C67.6243 60.5277 67.1343 59.9477 67.2743 59.5777L67.2643 59.5877ZM99.8943 72.4277C99.8243 72.4877 99.7443 72.5477 99.6743 72.6077C99.7343 72.6677 99.7843 72.7177 99.8443 72.7777C99.9043 72.7077 99.9643 72.6277 100.014 72.5477C100.014 72.5377 99.9443 72.4677 99.6743 72.9377V72.7677C99.5743 72.7977 99.4643 72.8177 99.3843 72.8777C99.3643 72.8977 99.4243 73.0277 99.4443 73.1077C99.5143 73.0477 99.5943 72.9877 99.8843 72.4177L99.8943 72.4277ZM47.5143 63.3877C47.4443 63.4477 47.3643 63.5077 47.2943 63.5677C47.3543 63.6277 47.4043 63.6777 47.4643 63.7377C47.5243 63.6677 47.5843 63.5977 47.6343 63.5077C47.6343 63.4977 47.5643 63.4277 47.2943 63.8977V63.7277C47.1943 63.7577 47.0843 63.7777 47.0043 63.8377C46.9843 63.8577 47.0443 63.9877 47.0643 64.0677C47.1343 64.0077 47.2143 63.9477 47.5043 63.3777L47.5143 63.3877ZM65.4543 61.0577C65.3543 60.9277 65.2843 60.8177 65.2043 60.7177C65.1343 60.8077 65.0143 60.8977 65.0143 60.9777C65.0143 61.1377 65.1043 61.2877 65.1543 61.4377C65.2443 61.3277 65.3243 61.2077 65.6043 59.8077C65.4843 60.0977 65.4143 60.2277 65.3843 60.3677C65.3543 60.4777 65.3843 60.5977 65.3843 60.7177C65.5143 60.6277 65.7043 60.5677 65.7443 60.4477C65.7843 60.3177 65.6943 60.1377 65.4643 61.0577H65.4543ZM100.874 85.1777C100.774 85.0477 100.704 84.9377 100.624 84.8377C100.554 84.9277 100.434 85.0177 100.434 85.0977C100.434 85.2577 100.524 85.4077 100.574 85.5577C100.664 85.4477 100.744 85.3277 101.024 83.9277C100.904 84.2177 100.834 84.3477 100.804 84.4877C100.774 84.5977 100.804 84.7177 100.804 84.8377C100.934 84.7477 101.124 84.6877 101.164 84.5677C101.204 84.4377 101.114 84.2577 100.884 85.1777H100.874ZM46.2343 66.3377C46.1343 66.2077 46.0643 66.0977 45.9843 65.9977C45.9143 66.0877 45.7943 66.1777 45.7943 66.2577C45.7943 66.4177 45.8843 66.5677 45.9343 66.7177C46.0243 66.6077 46.1043 66.4877 46.3843 65.0877C46.2643 65.3777 46.1943 65.5077 46.1643 65.6477C46.1343 65.7577 46.1643 65.8777 46.1643 65.9977C46.2943 65.9077 46.4843 65.8477 46.5243 65.7277C46.5643 65.5977 46.4743 65.4177 46.2443 66.3377H46.2343ZM101.554 87.0977C102.284 86.9177 101.784 86.3377 102.364 85.5177C102.294 85.2977 102.214 85.0777 102.144 84.8677C102.074 84.9977 101.934 85.1277 101.934 85.2477C101.944 85.4877 102.044 85.7277 102.094 85.9677C102.174 85.8277 102.254 85.6877 101.914 85.9677C101.184 86.1477 101.684 86.7277 101.614 87.4377C101.514 87.3077 101.444 87.1977 101.364 87.0977C101.294 87.1877 101.174 87.2777 101.174 87.3577C101.174 87.5177 101.264 87.6677 101.314 87.8177C101.404 87.7077 101.484 87.5877 101.534 87.0977H101.554ZM6.22432 38.8677C6.22432 38.4877 6.22432 38.1177 6.44432 37.3877C6.37432 37.4477 6.29432 37.5077 6.22432 37.5677C6.28432 37.6277 6.33432 37.6777 6.39432 37.7377C6.45432 37.6677 6.51432 37.5877 6.56432 37.5077C6.56432 37.4977 6.49432 37.4277 6.22432 37.7377C5.49432 37.9177 5.99432 38.4977 5.92432 39.2077C5.82432 39.0777 5.75432 38.9677 5.67432 38.8677C5.60432 38.9577 5.48432 39.0477 5.48432 39.1277C5.48432 39.2877 5.57432 39.4377 5.62432 39.5877C5.71432 39.4777 5.79432 39.3577 5.84432 38.8677M16.4543 30.4877C16.3243 30.4177 16.1743 30.2877 16.1043 30.3177C15.5743 30.5577 15.0443 30.8077 14.5543 31.1077C13.6543 31.6677 12.8443 32.4777 11.8743 32.7877C10.6243 33.1777 10.0843 34.2477 9.20432 34.9577C7.92431 35.9977 6.97432 37.3077 6.41432 38.8677C6.34432 39.0577 6.28432 39.2477 6.22432 39.4277C6.43431 39.4677 6.74432 39.6177 6.85432 39.5277C7.69432 38.8577 8.76432 38.7077 9.68432 38.1477C12.4543 36.4477 14.7543 34.3777 16.0343 31.3177M91.8343 92.6777C91.7643 92.4577 91.6843 92.2377 91.6143 92.0277C91.5443 92.1577 91.4043 92.2877 91.4043 92.4077C91.4143 92.6477 91.5143 92.8877 91.5643 93.1277C91.6443 92.9877 91.7243 92.8477 91.4643 93.4677C91.3643 93.3377 91.2943 93.2277 91.2143 93.1277C91.1443 93.2177 91.0243 93.3077 91.0243 93.3877C91.0243 93.5477 91.1143 93.6977 91.1643 93.8477C91.2543 93.7377 91.3343 93.6177 91.8243 92.6677L91.8343 92.6777ZM101.954 81.5677C101.954 81.3877 101.974 81.2077 101.954 81.0277C101.944 80.9277 101.854 80.8277 101.804 80.7277C101.734 80.7977 101.604 80.8677 101.594 80.9377C101.574 81.2977 101.574 81.6577 101.594 82.0177C101.594 82.0777 101.704 82.1377 101.764 82.1977C101.834 82.1077 101.924 82.0177 101.954 81.9177C101.984 81.8077 101.954 81.6777 101.674 82.7477C101.574 82.5477 101.484 82.3777 101.404 82.1977C101.334 82.3477 101.214 82.4977 101.224 82.6477C101.224 82.8677 101.314 83.0777 101.364 83.2977C101.464 83.1277 101.564 82.9477 101.964 81.5577L101.954 81.5677ZM45.4243 67.8877C45.2943 68.0377 45.0943 68.1677 45.0643 68.3377C45.0043 68.6877 45.0443 69.0477 45.0443 70.3077C45.0443 70.1277 45.0643 69.9377 45.0443 69.7577C45.0243 69.6277 44.9343 69.5177 44.8743 69.3877C44.8143 69.5377 44.7043 69.6877 44.6843 69.8477C44.6543 70.2077 44.6643 70.5777 44.6843 70.9377C44.6843 71.0377 44.7843 71.1377 44.8343 71.2377C44.9043 71.1077 45.0143 70.9777 45.0443 70.8377C45.0843 70.6677 45.0443 70.4777 45.0443 69.3777C45.1743 69.2277 45.3743 69.0977 45.4043 68.9277C45.4643 68.5777 45.4243 68.2177 45.6543 66.9577C45.5343 67.2477 45.4643 67.3777 45.4343 67.5177C45.4043 67.6277 45.4343 67.7477 45.4343 67.8677C45.5643 67.7777 45.7543 67.7177 45.7943 67.5977C45.8343 67.4677 45.7443 67.2877 45.4343 67.8677L45.4243 67.8877ZM18.7343 30.1877C18.6443 29.9277 18.5743 29.6977 18.5043 29.4777C18.3043 29.6877 17.9843 29.8777 17.9343 30.1177C17.7243 31.1677 17.4043 32.1477 16.7943 33.0377C16.7043 33.1677 16.7843 33.4077 16.7843 33.5977V33.9777C16.8943 33.9377 17.0143 33.9077 17.1043 33.8377C18.3543 32.9277 18.1943 31.4077 16.7843 34.1177C16.7343 34.0777 16.6143 33.9777 16.6143 33.9777C16.2943 34.3277 15.9643 34.6877 15.6743 35.0577C15.6343 35.1077 15.6943 35.3377 15.7643 35.3677C16.0543 35.4877 16.8443 34.5277 18.7443 30.1777L18.7343 30.1877ZM41.6543 61.0577V60.7277C41.5443 60.7677 41.3943 60.7877 41.3443 60.8677C40.7143 61.7277 40.0443 62.5777 39.4943 63.4877C39.2043 63.9677 39.2443 64.6777 38.9143 65.1077C38.5543 65.5777 38.8743 66.5377 37.9043 66.5677C37.9043 66.5677 37.8443 66.8877 37.9043 66.9077C38.5543 67.2577 37.9243 67.5977 37.8843 67.9277C37.8243 68.3877 37.6243 68.8277 37.5343 69.2777C37.5043 69.4277 37.6043 69.6777 37.7143 69.7377C37.8343 69.7977 38.0743 69.7177 38.2043 69.6277C38.5143 69.4077 38.7143 69.1277 38.6643 68.6877C38.6243 68.3277 38.6143 67.9177 38.7543 67.6077C39.7343 65.5677 40.2743 63.3377 41.5243 61.4177C41.6143 61.2777 41.6443 61.0877 41.8843 60.3777C41.8143 60.4377 41.7343 60.4977 41.6643 60.5577C41.7243 60.6177 41.7743 60.6677 41.8343 60.7277C41.8943 60.6577 41.9543 60.5777 42.0043 60.4977C42.0043 60.4877 41.9343 60.4177 41.6643 61.0477L41.6543 61.0577ZM58.6143 54.9677C58.6143 54.4377 58.6343 54.0577 58.6143 53.6877C58.6043 53.5177 58.4943 53.3577 58.4343 53.1977C58.3443 53.2877 58.2643 53.3877 58.1643 53.4577C57.9243 53.6277 57.6443 53.7577 57.4343 53.9577C56.8943 54.4677 56.0843 54.4477 55.5743 55.1077C55.0843 55.7577 54.3343 56.1977 53.7343 56.7677C52.8743 57.5877 52.0543 58.4577 51.1943 59.2877C50.9543 59.5177 50.3743 59.6477 50.3643 59.8477C50.3243 61.1777 48.8043 61.6777 48.6943 62.9377C47.7143 63.8577 47.3943 65.1577 46.8543 66.3177C46.2943 67.5377 45.6743 68.7477 45.7243 70.2077C45.7443 70.7677 45.2243 71.3877 45.6043 72.0377C46.1243 71.7877 46.6543 71.5377 47.1743 71.2877C47.6443 71.0577 48.1743 70.8977 48.5643 70.5677C49.9243 69.4077 51.2543 68.2177 52.5443 66.9777C54.9343 64.6677 56.6643 61.9077 57.7043 58.7677C58.1243 57.4977 58.8543 56.2477 58.6043 54.9677H58.6143ZM92.3643 91.6077C92.3643 91.6077 92.4643 91.5277 92.4943 91.4777C92.8543 90.8777 93.3543 90.3077 93.5243 89.6577C93.9643 88.0277 94.9843 86.6177 95.3043 84.9377C95.4443 84.2077 95.6143 83.3177 96.0043 82.8177C96.5843 82.0777 95.8543 81.1677 96.5943 80.5877C96.6743 80.5177 96.7143 78.4277 96.7143 78.2977C96.6943 77.4877 96.7143 76.6777 96.6543 75.8677C96.6543 75.7177 96.3843 75.5777 96.2443 75.4277C96.1343 75.5477 95.9443 75.6577 95.9343 75.7777C95.9043 76.3377 95.9643 76.9077 95.9043 77.4677C95.8343 78.0477 95.6343 78.6077 95.5543 79.1977C95.4943 79.6277 95.6143 80.0877 95.5243 80.5077C95.4343 80.9577 95.2943 81.4677 94.9943 81.7777C94.5443 82.2577 95.3643 82.3677 95.1443 82.8577C94.6443 83.9577 94.5743 85.2577 94.0043 86.3277C93.2643 87.7177 93.4143 89.4677 92.2143 90.6677C92.0843 90.7977 92.1443 91.1377 92.1543 91.3777C92.1543 91.4577 92.2843 91.5377 92.3543 91.6177L92.3643 91.6077ZM61.2643 56.0877C61.2343 55.3477 61.3843 54.8277 60.8943 54.4677C60.8443 54.4377 60.9343 54.1177 61.0443 53.9977C61.2643 53.7477 61.2943 53.5877 60.9143 53.5877C60.7743 53.5877 60.5243 53.7577 60.5243 53.8377C60.6643 55.6077 59.8343 57.2177 59.7443 58.9477C59.6943 59.8877 58.7843 60.5877 58.9643 61.6377C58.9943 61.8177 58.5843 62.0777 58.3743 62.3077C58.3343 62.3577 58.2643 62.3977 58.2543 62.4477C58.2343 62.5677 58.2543 62.6977 58.2543 62.8177C58.3843 62.8177 58.5743 62.8577 58.6443 62.7877C59.9543 61.4277 60.4243 59.6777 60.8843 57.9277C61.0643 57.2477 61.1843 56.5477 61.2743 56.1077L61.2643 56.0877ZM-0.625684 37.3577C-0.555684 37.6177 -0.485684 37.8377 -0.425684 38.0677C-0.245684 37.9177 -0.0256834 37.7977 0.0943165 37.6177C0.284317 37.3277 0.404316 36.9977 0.564316 36.6877C0.934317 35.9677 1.32432 35.2477 1.68432 34.5177C1.73432 34.4177 1.71432 34.2577 1.67432 34.1577C1.65432 34.0977 1.45432 34.0377 1.42432 34.0677C0.454317 34.9877 -0.215684 36.0877 -0.625684 37.3677V37.3577ZM102.684 75.8077C102.684 75.3077 102.704 74.8177 102.674 74.3177C102.674 74.1977 102.524 74.0877 102.444 73.9777C102.404 74.0877 102.334 74.1877 102.314 74.2977C102.114 75.3577 102.744 76.5077 101.944 77.4977C102.034 77.5577 102.134 77.6877 102.224 77.6777C102.384 77.6577 102.664 77.5677 102.674 77.4877C102.714 76.9277 102.694 76.3677 102.694 75.8077H102.684ZM-14.1257 5.3277C-13.7457 5.2577 -13.2357 4.2077 -13.4457 3.9477C-13.4857 3.9077 -13.5557 3.8277 -13.5657 3.8377C-13.8657 3.9977 -14.2457 4.1077 -14.4257 4.3577C-14.5657 4.5477 -14.4557 4.9177 -14.4257 5.2077C-14.4257 5.2577 -14.2257 5.2877 -14.1257 5.3277ZM96.6643 71.6577C96.5843 71.2977 96.8643 70.8577 96.4143 70.5877C96.3743 70.9377 96.3243 71.2977 96.2943 71.6477C96.2743 71.8277 96.2743 72.0177 96.2943 72.1977C96.3043 72.2577 96.4443 72.3077 96.5343 72.3377C96.5643 72.3377 96.6543 72.2577 96.6543 72.2077C96.6643 72.0277 96.6543 71.8377 96.6543 71.6477L96.6643 71.6577ZM66.5143 57.7077C66.5143 57.5277 66.5343 57.3377 66.5043 57.1577C66.5043 57.0977 66.3443 57.0677 66.2643 57.0277C66.2643 57.4877 66.2643 57.9477 66.2643 58.4077C66.3443 58.3577 66.4943 58.3277 66.5043 58.2677C66.5343 58.0877 66.5143 57.8977 66.5143 57.7177V57.7077ZM101.934 79.0977C101.934 79.2177 101.914 79.3477 101.934 79.4677C101.974 79.6277 102.054 79.7877 102.114 79.9477C102.174 79.7877 102.274 79.6377 102.294 79.4677C102.324 79.2277 102.324 78.9777 102.294 78.7277C102.284 78.6277 102.174 78.5277 102.114 78.4377C102.054 78.5377 101.964 78.6277 101.934 78.7277C101.904 78.8377 101.934 78.9677 101.934 79.0977ZM98.8443 79.8177C98.9443 79.9577 99.0543 80.1077 99.1643 80.2577C99.2043 80.0877 99.3043 79.9177 99.2843 79.7577C99.2643 79.5777 99.1343 79.4077 99.0543 79.2377C98.9943 79.3977 98.9343 79.5577 98.8543 79.8077L98.8443 79.8177ZM44.3543 68.0577C44.2343 67.7677 44.1943 67.6677 44.1443 67.5677C44.0643 67.6777 43.9443 67.7777 43.9043 67.8977C43.8843 67.9877 43.9743 68.0977 44.0243 68.2077C44.1543 68.1477 44.2943 68.0977 44.3543 68.0677V68.0577ZM66.4343 61.8677C66.2943 61.9577 66.1443 62.0077 66.1443 62.0577C66.1543 62.2277 66.2143 62.3877 66.2643 62.5477C66.3443 62.4977 66.4943 62.4577 66.5043 62.4077C66.5043 62.2477 66.4643 62.0777 66.4443 61.8677H66.4343ZM63.9543 56.7577C63.8343 56.4677 63.7943 56.3677 63.7443 56.2677C63.6643 56.3777 63.5443 56.4777 63.5043 56.5977C63.4843 56.6877 63.5743 56.7977 63.6243 56.9077C63.7543 56.8477 63.8943 56.7977 63.9543 56.7677V56.7577ZM81.1943 93.5877C80.9943 93.5577 80.8243 93.5177 80.6543 93.5277C80.6043 93.5277 80.5543 93.6777 80.5143 93.7677C80.6743 93.8077 80.8443 93.8677 81.0043 93.8877C81.0443 93.8877 81.1043 93.7377 81.1943 93.5977V93.5877ZM90.9343 95.0077C90.9643 94.8077 91.0043 94.6377 90.9943 94.4677C90.9943 94.4177 90.8443 94.3677 90.7543 94.3277C90.7143 94.4877 90.6543 94.6577 90.6343 94.8177C90.6343 94.8577 90.7843 94.9177 90.9243 95.0077H90.9343ZM5.01432 38.4777C5.04432 38.2777 5.08432 38.1077 5.07432 37.9377C5.07432 37.8877 4.92432 37.8377 4.83432 37.7977C4.79432 37.9577 4.73432 38.1277 4.71432 38.2877C4.71432 38.3277 4.86432 38.3877 5.00432 38.4777H5.01432ZM-10.6557 6.6377C-10.7757 6.3477 -10.8157 6.2477 -10.8657 6.1477C-10.9457 6.2577 -11.0657 6.3577 -11.1057 6.4777C-11.1257 6.5677 -11.0357 6.6777 -10.9857 6.7877C-10.8557 6.7277 -10.7157 6.6777 -10.6557 6.6477V6.6377ZM43.9843 69.5677C43.8643 69.2777 43.8243 69.1777 43.7743 69.0777C43.6943 69.1877 43.5743 69.2877 43.5343 69.4077C43.5143 69.4977 43.6043 69.6077 43.6543 69.7177C43.7843 69.6577 43.9243 69.6077 43.9843 69.5777V69.5677ZM66.2143 59.3977C66.0943 59.1077 66.0543 59.0077 66.0043 58.9077C65.9243 59.0177 65.8043 59.1177 65.7643 59.2377C65.7443 59.3277 65.8343 59.4377 65.8843 59.5477C66.0143 59.4877 66.1543 59.4377 66.2143 59.4077V59.3977ZM-12.9457 7.0777C-12.8957 7.1277 -12.8557 7.1677 -12.8157 7.2077C-12.7757 7.1277 -12.7157 7.0477 -12.6957 6.9577C-12.6957 6.9277 -12.7757 6.8777 -12.8157 6.8377C-12.8657 6.9177 -12.9057 6.9977 -12.9457 7.0777ZM20.4043 31.6477C20.4543 31.5977 20.4943 31.5577 20.5343 31.5177C20.4543 31.4777 20.3743 31.4177 20.2843 31.3977C20.2543 31.3977 20.2043 31.4777 20.1643 31.5177C20.2443 31.5677 20.3243 31.6077 20.4043 31.6477ZM22.4743 32.3177L22.6043 32.4477C22.6443 32.3677 22.7043 32.2877 22.7243 32.1977C22.7243 32.1677 22.6443 32.1177 22.6043 32.0777C22.5543 32.1577 22.5143 32.2377 22.4743 32.3177ZM5.14432 37.2177C5.19431 37.2677 5.23432 37.3077 5.27432 37.3477C5.31432 37.2677 5.37432 37.1877 5.39432 37.0977C5.39432 37.0677 5.31432 37.0177 5.27432 36.9777C5.22432 37.0577 5.18432 37.1377 5.14432 37.2177ZM60.3543 43.8077C60.2743 43.8477 60.1943 43.8977 60.1143 43.9377C60.1543 43.9777 60.2043 44.0577 60.2343 44.0577C60.3243 44.0377 60.4043 43.9777 60.4843 43.9377C60.4443 43.8977 60.4043 43.8577 60.3543 43.8077ZM63.0743 59.0677C63.0343 58.9877 62.9843 58.9077 62.9443 58.8277C62.9043 58.8677 62.8243 58.9177 62.8243 58.9477C62.8443 59.0377 62.9043 59.1177 62.9443 59.1977C62.9843 59.1577 63.0243 59.1177 63.0743 59.0677ZM42.3443 59.8177C42.3043 59.7377 42.2543 59.6577 42.2143 59.5777C42.1743 59.6177 42.0943 59.6677 42.0943 59.6977C42.1143 59.7877 42.1743 59.8677 42.2143 59.9477L42.3443 59.8177ZM46.9243 62.0277C46.9243 62.0277 46.8343 61.9077 46.8043 61.9077C46.7143 61.9277 46.6343 61.9877 46.5543 62.0277C46.5943 62.0677 46.6443 62.1477 46.6743 62.1477C46.7643 62.1277 46.8443 62.0677 46.9243 62.0277ZM46.1143 63.5877C46.0743 63.5077 46.0243 63.4277 45.9843 63.3477C45.9443 63.3877 45.8643 63.4377 45.8643 63.4677C45.8843 63.5577 45.9443 63.6377 45.9843 63.7177C46.0243 63.6777 46.0643 63.6377 46.1143 63.5877ZM46.6843 64.7977C46.7643 64.7577 46.8443 64.7077 46.9243 64.6677C46.8843 64.6277 46.8343 64.5477 46.8043 64.5477C46.7143 64.5677 46.6343 64.6277 46.5543 64.6677L46.6843 64.7977ZM41.9743 66.5977C41.9343 66.5177 41.8843 66.4377 41.8443 66.3577C41.8043 66.3977 41.7243 66.4477 41.7243 66.4777C41.7443 66.5677 41.8043 66.6477 41.8443 66.7277C41.8843 66.6877 41.9243 66.6477 41.9743 66.5977ZM44.6143 66.4877C44.5643 66.4377 44.5243 66.3977 44.4843 66.3577C44.4443 66.4377 44.3843 66.5177 44.3643 66.6077C44.3643 66.6377 44.4443 66.6877 44.4843 66.7277C44.5343 66.6477 44.5743 66.5677 44.6143 66.4877ZM96.4343 73.0777C96.5143 73.0377 96.5943 72.9877 96.6743 72.9477C96.6343 72.9077 96.5843 72.8277 96.5543 72.8277C96.4643 72.8477 96.3843 72.9077 96.3043 72.9477L96.4343 73.0777ZM96.3543 74.1277L96.4843 74.2577C96.5243 74.1777 96.5843 74.0977 96.6043 74.0077C96.6043 73.9777 96.5243 73.9277 96.4843 73.8877C96.4343 73.9677 96.3943 74.0477 96.3543 74.1277ZM99.5543 76.0877C99.6043 76.0377 99.6443 75.9977 99.6843 75.9577C99.6043 75.9177 99.5243 75.8577 99.4343 75.8377C99.4043 75.8377 99.3543 75.9177 99.3143 75.9577C99.3943 76.0077 99.4743 76.0477 99.5543 76.0877ZM99.5543 76.5777C99.4743 76.6177 99.3943 76.6677 99.3143 76.7077C99.3543 76.7477 99.4043 76.8277 99.4343 76.8277C99.5243 76.8077 99.6043 76.7477 99.6843 76.7077C99.6443 76.6677 99.6043 76.6277 99.5543 76.5777ZM101.004 88.2077C101.004 88.2077 100.884 88.2977 100.884 88.3277C100.904 88.4177 100.964 88.4977 101.004 88.5777C101.044 88.5377 101.124 88.4877 101.124 88.4577C101.104 88.3677 101.044 88.2877 101.004 88.2077ZM100.624 88.9577C100.624 88.9577 100.504 89.0477 100.504 89.0777C100.524 89.1677 100.584 89.2477 100.624 89.3277C100.664 89.2877 100.744 89.2377 100.744 89.2077C100.724 89.1177 100.664 89.0377 100.624 88.9577ZM100.304 90.7877C100.354 90.7377 100.394 90.6977 100.434 90.6577C100.354 90.6177 100.274 90.5577 100.184 90.5377C100.154 90.5377 100.104 90.6177 100.064 90.6577C100.144 90.7077 100.224 90.7477 100.304 90.7877ZM99.8743 91.2177C99.8743 91.2177 99.7543 91.3077 99.7543 91.3377C99.7743 91.4277 99.8343 91.5077 99.8743 91.5877C99.9143 91.5477 99.9943 91.4977 99.9943 91.4677C99.9743 91.3777 99.9143 91.2977 99.8743 91.2177ZM97.2943 93.1577C97.2143 93.1977 97.1343 93.2477 97.0543 93.2877C97.0943 93.3277 97.1443 93.4077 97.1743 93.4077C97.2643 93.3877 97.3443 93.3277 97.4243 93.2877C97.3843 93.2477 97.3443 93.2077 97.2943 93.1577ZM97.3743 94.7477C97.3243 94.6977 97.2843 94.6577 97.2443 94.6177C97.2043 94.6977 97.1443 94.7777 97.1243 94.8677C97.1243 94.8977 97.2043 94.9477 97.2443 94.9877C97.2943 94.9077 97.3343 94.8277 97.3743 94.7477ZM89.9443 95.4977C89.9843 95.5777 90.0343 95.6577 90.0743 95.7377C90.1143 95.6977 90.1943 95.6477 90.1943 95.6177C90.1743 95.5277 90.1143 95.4477 90.0743 95.3677C90.0343 95.4077 89.9943 95.4477 89.9443 95.4977Z" fill="url(#paint0_linear_186_381)"/>
</g>
<defs>
<linearGradient id="paint0_linear_186_381" x1="54.9943" y1="46.5077" x2="-26.0057" y2="0.00769056" gradientUnits="userSpaceOnUse">
<stop stop-color="#2EC86C"/>
<stop offset="1" stop-color="#FFE769"/>
</linearGradient>
<clipPath id="clip0_186_381">
<rect width="127.79" height="111.51" fill="white"/>
</clipPath>
</defs>
</svg>
