<svg width="151" height="151" viewBox="0 0 151 151" fill="none" xmlns="http://www.w3.org/2000/svg">
<g clip-path="url(#clip0_186_102)">
<path d="M40.8297 34.5574L35.5454 21.5837L44.6744 25.4285L40.8297 34.5574Z" fill="#2EC86C"/>
<path d="M51.7222 61.3005L46.438 48.3268L55.5669 52.1716L51.7222 61.3005Z" fill="#2EC86C"/>
<path d="M62.6148 88.0436L57.3306 75.0699L66.4595 78.9147L62.6148 88.0436Z" fill="#2EC86C"/>
<path d="M73.5076 114.787L68.2305 101.796L77.3594 105.641L73.5076 114.787Z" fill="#2EC86C"/>
<path d="M84.4001 141.53L79.123 128.539L88.252 132.384L84.4001 141.53Z" fill="#2EC86C"/>
<path d="M67.316 39.3592L62.0317 26.3856L71.1607 30.2303L67.316 39.3592Z" fill="#2EC86C"/>
<path d="M78.2086 66.1023L72.9243 53.1287L82.0533 56.9734L78.2086 66.1023Z" fill="#2EC86C"/>
<path d="M89.1011 92.8455L83.8169 79.8718L92.9459 83.7165L89.1011 92.8455Z" fill="#2EC86C"/>
<path d="M99.9937 119.589L94.7095 106.615L103.838 110.46L99.9937 119.589Z" fill="#2EC86C"/>
<path d="M93.8023 44.1611L88.5181 31.1874L97.647 35.0322L93.8023 44.1611Z" fill="#2EC86C"/>
<path d="M104.695 70.9042L99.4106 57.9305L108.54 61.7753L104.695 70.9042Z" fill="#2EC86C"/>
<path d="M115.587 97.6474L110.303 84.6737L119.432 88.5184L115.587 97.6474Z" fill="#2EC86C"/>
<path d="M120.289 48.9629L115.004 35.9893L124.133 39.834L120.289 48.9629Z" fill="#2EC86C"/>
<path d="M131.181 75.706L125.897 62.7324L135.026 66.5771L131.181 75.706Z" fill="#2EC86C"/>
<path d="M146.775 53.7648L141.474 40.784L150.62 44.6359L146.775 53.7648Z" fill="#2EC86C"/>
</g>
<defs>
<clipPath id="clip0_186_102">
<rect width="115" height="115" fill="white" transform="translate(44.6357) rotate(22.8387)"/>
</clipPath>
</defs>
</svg>
