<svg width="81" height="76" viewBox="0 0 81 76" fill="none" xmlns="http://www.w3.org/2000/svg">
<g clip-path="url(#clip0_186_300)">
<path d="M21.8644 21.9263C21.8644 27.5402 17.3037 32.0961 11.6839 32.0961C6.06415 32.0961 1.50342 27.5402 1.50342 21.9263C1.50342 16.3125 6.06415 11.7566 11.6839 11.7566C17.3037 11.7566 21.8644 16.3125 21.8644 21.9263Z" fill="white"/>
<path d="M11.6838 33.3587C5.38076 33.3587 0.239258 28.2227 0.239258 21.9263C0.239258 15.63 5.38076 10.4939 11.6838 10.4939C17.9868 10.4939 23.1283 15.63 23.1283 21.9263C23.1283 28.2227 17.9868 33.3587 11.6838 33.3587ZM11.6838 13.0193C6.76435 13.0193 2.78439 17.0121 2.78439 21.9093C2.78439 26.8064 6.78143 30.7992 11.6838 30.7992C16.5862 30.7992 20.5832 26.8064 20.5832 21.9093C20.5832 17.0121 16.5862 13.0193 11.6838 13.0193Z" fill="#231F20"/>
<path d="M22.1035 45.6785H1.28125V42.6071C1.28125 36.8568 5.94447 32.1985 11.7009 32.1985C17.4573 32.1985 22.1206 36.8568 22.1206 42.6071V45.6785H22.1035Z" fill="white"/>
<path d="M22.1033 46.9582H1.28111C0.580768 46.9582 0 46.3952 0 45.6785V42.6071C0 36.1742 5.24399 30.9358 11.6837 30.9358C18.1234 30.9358 23.3674 36.1742 23.3674 42.6071V45.6785C23.3674 46.3781 22.8037 46.9582 22.0863 46.9582H22.1033ZM2.54513 44.4158H20.8393V42.6242C20.8393 37.5905 16.7398 33.4953 11.7008 33.4953C6.66175 33.4953 2.56221 37.5905 2.56221 42.6242V44.4158H2.54513Z" fill="#231F20"/>
<path d="M44.4086 17.4574C45.9999 10.2808 41.4661 3.17425 34.2818 1.58455C27.0976 -0.00515129 19.9836 4.52393 18.3922 11.7005C16.8008 18.8772 21.3347 25.9837 28.5189 27.5734C35.7031 29.1631 42.8172 24.634 44.4086 17.4574Z" fill="#FFE769"/>
<path d="M31.3956 29.1612C23.3503 29.1612 16.791 22.626 16.791 14.5721C16.791 6.51819 23.3332 0 31.3956 0C39.458 0 46.0002 6.53525 46.0002 14.5891C46.0002 22.643 39.458 29.1783 31.3956 29.1783V29.1612ZM31.3956 2.54243C24.7509 2.54243 19.3361 7.93444 19.3361 14.5891C19.3361 21.2438 24.7339 26.6358 31.3956 26.6358C38.0574 26.6358 43.4551 21.2438 43.4551 14.5891C43.4551 7.93444 38.0574 2.54243 31.3956 2.54243Z" fill="#231F20"/>
<path d="M45.0266 45.6785H17.7476V41.6686C17.7476 34.1437 23.8456 28.0521 31.3785 28.0521C38.9114 28.0521 45.0095 34.1437 45.0095 41.6686V45.6785H45.0266Z" fill="#FFE769"/>
<path d="M45.0264 46.9582H17.7474C17.0471 46.9582 16.4663 46.3952 16.4663 45.6785V41.6686C16.4663 33.4612 23.1622 26.7723 31.3784 26.7723C39.5945 26.7723 46.2904 33.4612 46.2904 41.6686V45.6785C46.2904 46.3781 45.7267 46.9582 45.0093 46.9582H45.0264ZM19.0285 44.4158H43.7624V41.6686C43.7624 34.8604 38.2109 29.3148 31.3954 29.3148C24.58 29.3148 19.0285 34.8604 19.0285 41.6686V44.4158Z" fill="#231F20"/>
<path d="M35.1192 35.56C29.6019 41.9076 30.2851 51.5142 36.6394 57.0256C42.9937 62.5371 52.6105 61.8546 58.1278 55.507C63.6451 49.1595 62.9619 39.5528 56.6076 34.0414C50.2533 28.5299 40.6365 29.2124 35.1192 35.56ZM54.4212 52.2991C50.6803 56.5991 44.1552 57.0598 39.8507 53.3229C35.5462 49.586 35.085 43.0679 38.8258 38.7679C42.5667 34.4679 49.0918 34.0072 53.3963 37.7441C57.7008 41.481 58.162 47.9992 54.4212 52.2991Z" fill="white"/>
<path d="M46.5979 62.0252C42.635 62.0252 38.8259 60.6089 35.8025 57.9812C28.9357 52.0261 28.2012 41.5833 34.1626 34.7239C37.0494 31.3965 41.0635 29.4001 45.4535 29.093C49.8434 28.7859 54.0966 30.2021 57.4275 33.0858C60.7584 35.9695 62.7569 39.9794 63.0644 44.3647C63.3718 48.7499 61.9541 52.9987 59.0673 56.326C56.1806 59.6534 52.1664 61.6498 47.7765 61.9569C47.3836 61.9911 46.9908 61.9911 46.5808 61.9911L46.5979 62.0252ZM46.6491 31.6013C46.3075 31.6013 45.983 31.6013 45.6413 31.6354C41.9176 31.8914 38.5355 33.5977 36.0928 36.3961C31.0538 42.1976 31.6688 51.0194 37.4764 56.0701C40.0386 58.2883 43.25 59.4828 46.5979 59.4828C46.9395 59.4828 47.2641 59.4828 47.6057 59.4486C51.3295 59.1927 54.7116 57.4863 57.1542 54.688C59.5969 51.8725 60.7925 48.2892 60.5363 44.5694C60.2801 40.8496 58.572 37.4711 55.7706 35.031C53.2084 32.8128 49.9971 31.6184 46.6491 31.6184V31.6013ZM46.615 57.128C43.8307 57.128 41.166 56.1383 39.0308 54.2955C36.6907 52.265 35.29 49.4495 35.068 46.3611C34.8459 43.2726 35.8537 40.2865 37.8864 37.9489C42.0713 33.1199 49.4163 32.608 54.2504 36.7885C59.0844 40.9691 59.5969 48.3063 55.4119 53.1352C53.3792 55.4729 50.5608 56.8721 47.4691 57.0939C47.1958 57.111 46.9054 57.128 46.6321 57.128H46.615ZM46.6321 36.4985C44.104 36.4985 41.576 37.5564 39.7824 39.604C38.1939 41.4298 37.4252 43.7674 37.596 46.1734C37.7668 48.5793 38.86 50.7805 40.6877 52.3674C42.5155 53.9542 44.8556 54.7221 47.2641 54.5515C49.6726 54.3808 51.8761 53.2888 53.4646 51.463C56.7443 47.692 56.3343 41.9758 52.5593 38.6996C50.8512 37.2151 48.7331 36.4814 46.6321 36.4814V36.4985Z" fill="#231F20"/>
<path d="M58.8623 56.1554L67.7276 63.8339L58.8623 56.1554Z" fill="white"/>
<path d="M67.7276 65.1136C67.4372 65.1136 67.1298 65.0112 66.8906 64.8065L58.0425 57.128C57.5129 56.6673 57.4617 55.8653 57.9229 55.3363C58.3841 54.8074 59.1869 54.7562 59.7164 55.2169L68.5646 62.8954C69.0941 63.3561 69.1454 64.158 68.6842 64.687C68.428 64.9771 68.0863 65.1307 67.7276 65.1307V65.1136Z" fill="#231F20"/>
<path d="M79.0525 73.7817C78.0617 74.925 76.3365 75.0444 75.1921 74.0548L65.1311 65.3183C63.9867 64.3287 63.8671 62.6053 64.8578 61.462C65.8485 60.3188 67.5738 60.1993 68.7182 61.189L78.7792 69.9254C79.9236 70.9151 80.0432 72.6385 79.0525 73.7817Z" fill="white"/>
<path d="M76.9686 76C76.0291 76 75.1067 75.6758 74.338 75.0274L64.2771 66.291C62.6031 64.8406 62.4323 62.2982 63.8842 60.626C65.3361 58.9538 67.8813 58.7831 69.5552 60.2335L79.6162 68.9699C81.2902 70.4203 81.461 72.9628 80.0091 74.635C79.2233 75.5393 78.0959 76.0171 76.9686 76.0171V76ZM66.9076 61.8033C66.4977 61.8033 66.0877 61.974 65.7973 62.3152C65.2678 62.9295 65.3361 63.8509 65.9511 64.3799L76.012 73.1163C76.6269 73.6453 77.5493 73.577 78.0789 72.9627C78.6084 72.3485 78.5401 71.4271 77.9251 70.8981L67.8642 62.1617C67.5909 61.9228 67.2493 61.8033 66.9076 61.8033Z" fill="#231F20"/>
<path d="M63.3036 28.2569C62.6032 28.2569 62.0225 27.6938 62.0225 26.9772V11.7567C62.0225 11.0571 62.5861 10.4769 63.3036 10.4769C64.021 10.4769 64.5847 11.04 64.5847 11.7567V26.9942C64.5847 27.6938 64.021 28.274 63.3036 28.274V28.2569Z" fill="#231F20"/>
<path d="M70.922 20.6467H55.6683C54.968 20.6467 54.3872 20.0836 54.3872 19.3669C54.3872 18.6502 54.9509 18.0872 55.6683 18.0872H70.922C71.6223 18.0872 72.2031 18.6502 72.2031 19.3669C72.2031 20.0836 71.6394 20.6467 70.922 20.6467Z" fill="#231F20"/>
<path d="M15.5267 67.656C14.8264 67.656 14.2456 67.0929 14.2456 66.3763V55.1145C14.2456 54.4149 14.8093 53.8347 15.5267 53.8347C16.2441 53.8347 16.8078 54.3978 16.8078 55.1145V66.3763C16.8078 67.0759 16.2441 67.656 15.5267 67.656Z" fill="#231F20"/>
<path d="M21.1637 62.0251H9.88999C9.18965 62.0251 8.60889 61.462 8.60889 60.7453C8.60889 60.0287 9.17257 59.4656 9.88999 59.4656H21.1637C21.8641 59.4656 22.4448 60.0287 22.4448 60.7453C22.4448 61.462 21.8811 62.0251 21.1637 62.0251Z" fill="#231F20"/>
</g>
<defs>
<clipPath id="clip0_186_300">
<rect width="81" height="76" fill="white"/>
</clipPath>
</defs>
</svg>
