<svg width="61" height="83" viewBox="0 0 61 83" fill="none" xmlns="http://www.w3.org/2000/svg">
<g clip-path="url(#clip0_186_332)">
<path d="M42.2556 1.40771H12.9989C6.60025 1.40771 1.41309 6.57588 1.41309 12.9511V42.1006C1.41309 48.4759 6.60025 53.644 12.9989 53.644H42.2556C48.6543 53.644 53.8414 48.4759 53.8414 42.1006V12.9511C53.8414 6.57588 48.6543 1.40771 42.2556 1.40771Z" fill="#2EC86C"/>
<path d="M42.2366 55.033H12.9988C5.84002 55.033 0 49.2332 0 42.0819V12.9512C0 5.79986 5.82119 0 12.9988 0H42.2366C49.3953 0 55.2353 5.79986 55.2353 12.9512V42.0819C55.2353 49.2144 49.4141 55.033 42.2366 55.033ZM12.9988 2.7967C7.38481 2.7967 2.80698 7.35776 2.80698 12.9512V42.0819C2.80698 47.6753 7.38481 52.2363 12.9988 52.2363H42.2366C47.8505 52.2363 52.4284 47.6753 52.4284 42.0819V12.9512C52.4284 7.35776 47.8505 2.7967 42.2366 2.7967H12.9988Z" fill="#231F20"/>
<path d="M30.0479 69.9174V59.0685C30.0479 57.5481 30.5 56.0653 31.3666 54.8265L33.3258 51.9923C33.7591 51.3541 34.004 50.6033 34.004 49.8337V36.3195C34.004 34.0671 35.8314 32.2465 38.092 32.2465C40.3527 32.2465 42.18 34.0671 42.18 36.3195C42.18 36.6949 42.5003 43.8274 42.8771 43.8274H46.0043C48.1143 43.8274 49.8286 45.5355 49.8286 47.6377V48.3509H51.8443C54.0485 48.3509 55.8382 50.1341 55.8382 52.3301C57.9104 52.3301 59.6059 54.0006 59.6059 56.0841V70.0488C59.6059 71.8319 59.248 73.6151 58.5509 75.2668L56.7989 79.4149C56.2338 80.7476 54.9151 81.6298 53.4456 81.6298H36.3777C34.9459 81.6298 33.6272 80.7851 33.0432 79.4712L31.2159 75.3607C30.4623 73.6526 30.0667 71.7944 30.0667 69.9362L30.0479 69.9174Z" fill="white"/>
<path d="M53.4266 83H36.3587C34.3618 83 32.5532 81.8363 31.7432 80.0156L29.9158 75.905C29.0681 74.0093 28.6348 71.9821 28.6348 69.9174V59.0685C28.6348 57.2666 29.1811 55.521 30.1984 54.0382L32.1576 51.204C32.4402 50.791 32.5909 50.3218 32.5909 49.8338V36.3195C32.5909 33.2976 35.0588 30.8387 38.0918 30.8387C41.1249 30.8387 43.5928 33.2976 43.5928 36.3195C43.5928 36.9202 43.7812 40.6553 43.9884 42.4197H46.0041C48.6604 42.4197 50.8457 44.3905 51.1848 46.9432H51.8442C54.3874 46.9432 56.535 48.7076 57.1002 51.0913C59.342 51.6544 60.9998 53.6816 60.9998 56.0841V70.0488C60.9998 72.0384 60.6042 73.9717 59.8318 75.8112L58.0798 79.9593C57.2886 81.8175 55.4612 83.0188 53.4266 83.0188V83ZM38.073 33.6167C36.5847 33.6167 35.3979 34.8179 35.3979 36.282V49.7962C35.3979 50.8473 35.0776 51.8797 34.4748 52.7431L32.5156 55.5773C31.8185 56.5909 31.4417 57.7922 31.4417 59.031V69.8799C31.4417 71.5692 31.7808 73.2022 32.4779 74.7413L34.3052 78.8519C34.6632 79.659 35.4732 80.1845 36.3398 80.1845H53.4078C54.312 80.1845 55.1221 79.659 55.4612 78.8331L57.2132 74.685C57.8349 73.2022 58.1551 71.6255 58.1551 70.0113V56.0466C58.1551 54.7515 57.1002 53.7003 55.8003 53.7003C55.0279 53.7003 54.3874 53.0809 54.3874 52.2926C54.3874 50.8661 53.2194 49.7024 51.7876 49.7024H49.7719C48.9995 49.7024 48.359 49.083 48.359 48.2946V47.5814C48.359 46.2487 47.2663 45.1601 45.9288 45.1601H42.8015C42.4436 45.1601 41.577 45.0287 41.2944 43.7711C41.2379 43.5271 41.1814 43.2268 41.1437 42.8139C41.0684 42.1945 40.993 41.3311 40.9177 40.2424C40.7858 38.4217 40.7104 36.5072 40.7104 36.2444C40.7104 34.7616 39.5047 33.5791 38.0353 33.5791L38.073 33.6167Z" fill="#231F20"/>
<path d="M17.3691 33.2976C17.3691 33.2976 18.7632 11.337 41.9538 6.02515C45.3071 21.285 17.3691 33.2976 17.3691 33.2976Z" fill="white"/>
<path d="M17.3693 34.7053C17.0868 34.7053 16.8042 34.6115 16.5593 34.4426C16.1637 34.161 15.9376 33.6918 15.9753 33.2038C15.9753 32.9598 16.3897 27.3476 19.7242 21.0034C21.7023 17.2682 24.2832 14.0586 27.4292 11.4496C31.3477 8.20241 36.1328 5.9125 41.6337 4.65492C41.9916 4.57984 42.3872 4.63615 42.7075 4.84262C43.0278 5.04909 43.2538 5.36817 43.3292 5.7248C44.1769 9.59137 43.2915 13.5518 40.7106 17.4935C38.7137 20.5342 35.7183 23.5561 31.7622 26.503C25.1309 31.4582 18.2171 34.4613 17.9157 34.5927C17.7461 34.6678 17.5389 34.7053 17.3505 34.7053H17.3693ZM40.8048 7.75194C36.3588 8.97197 32.4592 10.924 29.2378 13.6081C26.3743 15.9731 24.0194 18.9012 22.2109 22.3173C20.4401 25.6771 19.5546 28.8492 19.1402 30.9139C25.3381 27.8168 41.6525 18.6009 40.7859 7.75194H40.8048Z" fill="#231F20"/>
<path d="M13.5639 45.0099C13.4508 45.0099 13.319 45.0099 13.1871 44.9536C12.4336 44.7471 12.0003 43.9776 12.2075 43.2456C15.2405 32.1526 20.327 24.701 24.0759 20.4027C28.1639 15.6915 31.5361 13.6456 31.6868 13.5705C32.3462 13.1763 33.2127 13.3828 33.6084 14.0398C34.004 14.6967 33.7967 15.5601 33.1374 15.9543C33.0809 15.9918 29.916 17.9251 26.1105 22.336C22.5877 26.409 17.8026 33.4665 14.9203 43.9776C14.7507 44.597 14.1856 45.0099 13.5639 45.0099Z" fill="#231F20"/>
<path d="M22.9832 49.3645H13.5638C12.7914 49.3645 12.1509 48.7451 12.1509 47.9568C12.1509 47.1685 12.7726 46.5491 13.5638 46.5491H22.9832C23.7556 46.5491 24.3961 47.1685 24.3961 47.9568C24.3961 48.7451 23.7744 49.3645 22.9832 49.3645Z" fill="#231F20"/>
</g>
<defs>
<clipPath id="clip0_186_332">
<rect width="61" height="83" fill="white"/>
</clipPath>
</defs>
</svg>
