<svg width="76" height="62" viewBox="0 0 76 62" fill="none" xmlns="http://www.w3.org/2000/svg">
<g clip-path="url(#clip0_186_349)">
<path d="M68.1668 1.08643H1.09424V51.9467H68.1668V1.08643Z" fill="#FFE769"/>
<path d="M68.152 53.0187H1.09405C0.495969 53.0187 0 52.5407 0 51.9322V1.08645C0 0.492523 0.481382 0 1.09405 0H68.1666C68.7647 0 69.2607 0.478037 69.2607 1.08645V51.9467C69.2607 52.5407 68.7793 53.0332 68.1666 53.0332L68.152 53.0187ZM2.17351 50.8603H67.0726V2.15841H2.17351V50.8603Z" fill="#231F20"/>
<path d="M68.1668 1.08643H1.09424V12.4579H68.1668V1.08643Z" fill="white"/>
<path d="M68.152 13.5299H1.09405C0.495969 13.5299 0 13.0519 0 12.4435V1.08645C0 0.492523 0.481382 0 1.09405 0H68.1666C68.7647 0 69.2607 0.478037 69.2607 1.08645V12.4579C69.2607 13.0519 68.7793 13.5444 68.1666 13.5444L68.152 13.5299ZM2.17351 11.3715H67.0726V2.15841H2.17351V11.3715Z" fill="#231F20"/>
<path d="M26.1406 20.179L46.1253 31.6374L26.1406 43.0958V20.179Z" fill="white"/>
<path d="M26.1405 44.1678C25.9509 44.1678 25.7612 44.1243 25.6008 44.0229C25.2653 43.8346 25.061 43.4724 25.061 43.0813V20.1645C25.061 19.7734 25.2653 19.4257 25.6008 19.2229C25.9363 19.0346 26.3447 19.0346 26.6948 19.2229L46.6795 30.6813C47.015 30.8696 47.2192 31.2318 47.2192 31.6229C47.2192 32.014 47.015 32.3617 46.6795 32.5645L26.6948 44.0229C26.5198 44.1243 26.3447 44.1678 26.1551 44.1678H26.1405ZM27.2345 22.0477V41.2271L43.9516 31.6374L27.2345 22.0477Z" fill="#231F20"/>
<path d="M9.77342 6.76501C9.77342 7.66314 9.04406 8.38744 8.13964 8.38744C7.23523 8.38744 6.50586 7.66314 6.50586 6.76501C6.50586 5.86688 7.23523 5.14258 8.13964 5.14258C9.04406 5.14258 9.77342 5.86688 9.77342 6.76501Z" fill="#231F20"/>
<path d="M15.0542 6.76501C15.0542 7.66314 14.3248 8.38744 13.4204 8.38744C12.516 8.38744 11.7866 7.66314 11.7866 6.76501C11.7866 5.86688 12.516 5.14258 13.4204 5.14258C14.3248 5.14258 15.0542 5.86688 15.0542 6.76501Z" fill="#231F20"/>
<path d="M20.3203 6.76501C20.3203 7.66314 19.5909 8.38744 18.6865 8.38744C17.7821 8.38744 17.0527 7.66314 17.0527 6.76501C17.0527 5.86688 17.7821 5.14258 18.6865 5.14258C19.5909 5.14258 20.3203 5.86688 20.3203 6.76501Z" fill="#231F20"/>
<path d="M64.0532 39.4164L66.2413 46.1089C66.3434 46.4421 66.6643 46.6739 67.0144 46.6739H74.0893C74.877 46.6739 75.2125 47.6734 74.5707 48.137L68.8378 52.2655C68.5461 52.4683 68.4294 52.8449 68.5461 53.1781L70.7342 59.8706C70.9822 60.6239 70.1215 61.2323 69.4797 60.7832L63.7469 56.6547C63.4551 56.4519 63.0758 56.4519 62.7841 56.6547L57.0513 60.7832C56.4094 61.2468 55.5488 60.6239 55.7968 59.8706L57.9849 53.1781C58.087 52.8449 57.9849 52.4828 57.6931 52.2655L51.9603 48.137C51.3184 47.6734 51.654 46.6739 52.4417 46.6739H59.5165C59.8666 46.6739 60.1876 46.4421 60.2897 46.1089L62.4778 39.4164C62.7257 38.6631 63.7906 38.6631 64.024 39.4164H64.0532Z" fill="white"/>
<path d="M56.5844 62C56.1905 62 55.7967 61.8841 55.4611 61.6378C54.7901 61.1598 54.513 60.3051 54.7755 59.5229L56.9053 53.0187L51.3329 49.0061C50.6619 48.528 50.3848 47.6733 50.6473 46.8911C50.9099 46.1089 51.6247 45.5874 52.4562 45.5874H59.3414L61.4711 39.0832C61.7337 38.3009 62.4485 37.7794 63.28 37.7794C64.1114 37.7794 64.8408 38.3009 65.0888 39.0832L67.2185 45.5874H74.1038C74.9352 45.5874 75.6646 46.1089 75.9126 46.8911C76.1752 47.6733 75.8834 48.528 75.227 49.0061L69.6546 53.0187L71.7844 59.5229C72.0469 60.3051 71.7552 61.1598 71.0988 61.6378C70.4278 62.1159 69.5233 62.1159 68.8669 61.6378L63.2945 57.6252L57.7222 61.6378C57.3867 61.8841 56.9928 62 56.599 62H56.5844ZM53.2876 47.7458L58.3349 51.3962C59.0059 51.8743 59.283 52.7289 59.0205 53.5112L57.0949 59.407L62.1421 55.7565C62.8132 55.2785 63.7176 55.2785 64.374 55.7565L69.4212 59.407L67.4957 53.5112C67.2331 52.7289 67.5249 51.8743 68.1813 51.3962L73.2285 47.7458H66.9851C66.1537 47.7458 65.4243 47.2243 65.1763 46.442L63.2508 40.5462L61.3253 46.442C61.0627 47.2243 60.3479 47.7458 59.5164 47.7458H53.273H53.2876Z" fill="#231F20"/>
</g>
<defs>
<clipPath id="clip0_186_349">
<rect width="76" height="62" fill="white"/>
</clipPath>
</defs>
</svg>
