<svg width="74" height="79" viewBox="0 0 74 79" fill="none" xmlns="http://www.w3.org/2000/svg">
<g clip-path="url(#clip0_186_281)">
<path d="M72.5813 57.6638H1.43782C0.651813 57.6638 0 57.0255 0 56.213V1.45078C0 0.657688 0.632643 0 1.43782 0H72.5813C73.3674 0 74.0192 0.638345 74.0192 1.45078V56.2324C74.0192 57.0255 73.3865 57.6831 72.5813 57.6831V57.6638ZM2.85648 54.7816H71.1435V2.88222H2.85648V54.7816Z" fill="#231F20"/>
<path d="M72.5813 79H1.43782C0.651813 79 0 78.3616 0 77.5492V56.213C0 55.4199 0.632643 54.7622 1.43782 54.7622H72.5813C73.3674 54.7622 74.0192 55.4006 74.0192 56.213V77.5492C74.0192 78.3423 73.3865 79 72.5813 79ZM2.85648 76.1177H71.1435V57.6638H2.85648V76.1177Z" fill="#231F20"/>
<path d="M54.7139 65.3433H31.2869C30.5009 65.3433 29.8491 64.705 29.8491 63.8926C29.8491 63.0801 30.4818 62.4418 31.2869 62.4418H54.7139C55.4999 62.4418 56.1517 63.0801 56.1517 63.8926C56.1517 64.705 55.5191 65.3433 54.7139 65.3433Z" fill="#231F20"/>
<path d="M63.2833 71.3979H31.2869C30.5009 71.3979 29.8491 70.7596 29.8491 69.9471C29.8491 69.1347 30.4818 68.4963 31.2869 68.4963H63.2833C64.0693 68.4963 64.7211 69.1347 64.7211 69.9471C64.7211 70.7596 64.0885 71.3979 63.2833 71.3979Z" fill="#231F20"/>
<path d="M47.1796 20.5817C47.1796 26.8298 42.1568 31.8978 35.9645 31.8978C29.7723 31.8978 24.7495 26.8298 24.7495 20.5817C24.7495 14.3337 29.7723 9.26562 35.9645 9.26562C42.1568 9.26562 47.1796 14.3337 47.1796 20.5817Z" fill="#2EC86C"/>
<path d="M35.9647 33.3293C29.0057 33.3293 23.3311 27.6036 23.3311 20.5818C23.3311 13.56 29.0057 7.83423 35.9647 7.83423C42.9238 7.83423 48.5984 13.56 48.5984 20.5818C48.5984 27.6036 42.9238 33.3293 35.9647 33.3293ZM35.9647 10.7165C30.5777 10.7165 26.1875 15.1462 26.1875 20.5818C26.1875 26.0174 30.5777 30.4471 35.9647 30.4471C41.3518 30.4471 45.7419 26.0174 45.7419 20.5818C45.7419 15.1462 41.3518 10.7165 35.9647 10.7165Z" fill="#231F20"/>
<path d="M47.4482 47.0054H24.5005V43.6009C24.5005 37.2175 29.6383 32.0333 35.9647 32.0333C42.2912 32.0333 47.429 37.2175 47.429 43.6009V47.0054H47.4482Z" fill="#2EC86C"/>
<path d="M47.448 48.4562H24.5003C23.7143 48.4562 23.0625 47.8178 23.0625 47.0054V43.6009C23.0625 36.4243 28.8521 30.5825 35.9646 30.5825C43.077 30.5825 48.8666 36.4243 48.8666 43.6009V47.0054C48.8666 47.7985 48.234 48.4562 47.4288 48.4562H47.448ZM25.9381 45.5739H46.0293V43.6009C46.0293 38.0105 41.5242 33.4647 35.9837 33.4647C30.4433 33.4647 25.9381 38.0105 25.9381 43.6009V45.5739Z" fill="#231F20"/>
<path d="M16.8322 73.6804C16.6022 73.6804 16.3721 73.6224 16.1804 73.5257C16.1229 73.487 9.56641 69.9664 9.56641 65.8462C9.56641 63.022 11.4452 60.9716 14.0332 60.9716C14.9918 60.9716 16.0079 61.4165 16.8322 61.9581C17.6566 61.3971 18.6726 60.9716 19.6312 60.9716C22.2193 60.9716 24.098 63.022 24.098 65.8462C24.098 69.9277 17.5607 73.487 17.484 73.5257C17.2731 73.6224 17.0623 73.6804 16.8322 73.6804ZM14.0332 63.8538C12.8446 63.8538 12.4229 64.9177 12.4229 65.8462C12.4229 67.2583 15.0301 69.4635 16.8322 70.5854C18.6535 69.4635 21.2415 67.2196 21.2415 65.8462C21.2415 64.937 20.8198 63.8538 19.6312 63.8538C19.2094 63.8538 18.3275 64.3374 17.8674 64.821C17.599 65.0918 17.2348 65.2659 16.8322 65.2659C16.4296 65.2659 16.0845 65.1111 15.797 64.821C15.3177 64.3374 14.455 63.8538 14.0332 63.8538Z" fill="#231F20"/>
</g>
<defs>
<clipPath id="clip0_186_281">
<rect width="74" height="79" fill="white"/>
</clipPath>
</defs>
</svg>
