<?xml version="1.0" encoding="UTF-8"?>
<svg width="174px" height="131px" viewBox="0 0 174 131" version="1.1" xmlns="http://www.w3.org/2000/svg" xmlns:xlink="http://www.w3.org/1999/xlink">
    <!-- Generator: Sketch 51.2 (57519) - http://www.bohemiancoding.com/sketch -->
    <title>phs_logo</title>
    <desc>Created with Sketch.</desc>
    <defs></defs>
    <g id="Symbols" stroke="none" stroke-width="1" fill="none" fill-rule="evenodd">
        <g id="Header---Desktop" transform="translate(-1.000000, 0.000000)" fill-rule="nonzero">
            <g id="Logo">
                <g>
                    <g id="phs_logo" transform="translate(1.000000, 0.000000)">
                        <path d="M98,81.3 C82.4,81.3 69.8,68.7 69.8,53.1 C69.8,46.4 72.2,40.2 76.1,35.4 C74.6,38.9 73.7,42.7 73.7,46.8 C73.7,62.4 86.3,75 101.9,75 C110.8,75 118.7,70.9 123.8,64.5 C119.5,74.3 109.6,81.3 98,81.3 Z" id="Shape" fill="#92B4E7"></path>
                        <path d="M116.9,15 C124.7,28.5 120.1,45.7 106.6,53.5 C100.8,56.9 94.3,57.9 88.1,56.9 C91.9,56.5 95.6,55.3 99.2,53.3 C112.7,45.5 117.3,28.3 109.5,14.8 C105.1,7.1 97.6,2.3 89.5,1 C100.2,-0.1 111.2,5 116.9,15 Z" id="Shape" fill="#0074CF"></path>
                        <path d="M50.1,31.8 C57.9,18.3 75.1,13.7 88.6,21.5 C94.4,24.9 98.6,30 100.8,35.8 C98.6,32.7 95.6,30.1 92.1,28 C78.6,20.2 61.4,24.8 53.6,38.3 C49.2,46 48.8,54.8 51.7,62.5 C45.3,53.8 44.3,41.8 50.1,31.8 Z" id="Shape" fill="#272361"></path>
                        <path d="M0.2,109.3 C1,109.2 1.5,108.8 1.5,108.2 L1.5,99.6 C1.5,98.7 1.4,98.6 0,98.3 L0,97.8 L4.5,97.8 C6.6,97.8 8.9,98.5 8.9,101.1 C8.9,104 6.2,105 4.2,104.8 L4.2,104.3 C6.3,104.2 7.1,102.9 7.1,101.5 C7.1,99.3 5.4,98.5 3.5,98.5 L3.2,98.5 L3,98.7 L3,108.2 C3,108.7 2.9,109.1 2.9,109.1 L4.6,109.3 L4.5,109.8 L0.1,109.9 L0.1,109.3 L0.2,109.3 Z" id="Shape" fill="#272361"></path>
                        <path d="M12.2,109.3 C13,109.2 13.5,108.8 13.5,108.2 L13.5,99.6 C13.5,98.7 13.4,98.6 12,98.3 L12,97.8 L16.2,97.8 C19.4,97.8 20.7,99.1 20.7,100.7 C20.7,102.4 19.2,103.5 18.3,104 L18.3,104.2 L20.9,108 C21.7,109.1 22,109.2 22.5,109.2 L22.7,109.2 L22.6,109.8 L20,109.8 L19.9,109.7 C19.9,109.7 19.5,108.8 18.8,107.7 L16.6,104.4 L15.3,104.4 L15.1,104.6 L15.1,108.1 C15.1,108.6 15,109 15,109 L16.6,109.2 L16.5,109.7 L12.2,109.8 L12.2,109.3 Z M16.5,103.8 C17.6,103.8 18.8,102.9 18.8,101.2 C18.8,99.8 18,98.5 15.8,98.5 L15.1,98.5 L14.9,98.7 L14.9,103.8 L16.5,103.8 Z" id="Shape" fill="#272361"></path>
                        <path d="M25.3,109.3 C26.1,109.2 26.6,108.8 26.6,108.2 L26.6,99.6 C26.6,98.7 26.5,98.6 25.1,98.3 L25.1,97.8 L32.5,97.8 C33.2,97.8 33.8,97.7 33.8,97.7 L33.2,100.7 L32.6,100.7 C32.7,98.8 32.1,98.5 30.7,98.5 L28.3,98.5 L28.1,98.7 L28.1,103.4 L31.4,103.4 L31.5,102.4 L32.2,102.3 L32.2,105.5 L31.4,105.5 L31.4,104.2 L28.3,104.2 L28.1,104.4 L28.1,108.3 C28.1,108.8 28,109.3 28,109.3 L30.8,109.3 C32.3,109.3 32.6,109 33.5,107.1 L34.1,107.1 L33.4,110 L27.8,110 C26.9,110 25.2,110.1 25.2,110.1 L25.2,109.3 L25.3,109.3 Z" id="Shape" fill="#272361"></path>
                        <path d="M37.4,109.3 C38.2,109.2 38.7,108.8 38.7,108.2 L39,99.6 C39,98.7 38.9,98.6 37.5,98.3 L37.5,97.8 L38.9,97.8 C40.3,97.8 40.9,97.7 40.9,97.7 L41,97.8 C41,97.8 41.2,98.7 41.5,99.5 L44.3,106.6 C44.4,106.9 44.6,107.3 44.6,107.6 L48.1,99.1 C48.2,98.7 48.5,97.9 48.5,97.9 L49,97.9 C50.6,97.9 50.9,97.8 50.9,97.8 L51,97.9 C51,97.9 50.4,98.6 50.4,100.2 L50.7,108.4 C50.7,109 50.6,109.3 50.6,109.3 L52.2,109.4 L52.1,109.9 L47.8,110 L47.8,109.4 C48.6,109.3 49.1,108.9 49.1,108.3 L48.7,99.4 L44.4,109.9 L43.8,109.7 L39.6,99.5 C39.6,99.5 39.6,99.9 39.5,100.2 L39.2,108.3 C39.2,108.8 39.1,109.3 39.1,109.3 L40.8,109.4 L40.7,109.9 L37.2,110 L37.2,109.3 L37.4,109.3 Z" id="Shape" fill="#272361"></path>
                        <path d="M55.6,109.3 C56.4,109.2 56.9,108.8 56.9,108.2 L56.9,99.6 C56.9,98.7 56.9,98.6 55.6,98.3 L55.6,97.8 L57,97.8 C58.6,97.8 59,97.7 59,97.7 L59.1,97.8 C59.1,97.8 58.5,98.5 58.5,100 L58.5,108.2 C58.5,108.7 58.4,109.1 58.4,109.1 L60.1,109.3 L60,109.8 L55.6,109.9 L55.6,109.3 Z" id="Shape" fill="#272361"></path>
                        <path d="M63.4,109.3 C64.2,109.2 64.7,108.8 64.7,108.2 L64.7,99.6 C64.7,98.7 64.6,98.6 63.2,98.3 L63.2,97.8 L70.6,97.8 C71.3,97.8 71.9,97.7 71.9,97.7 L71.3,100.7 L70.7,100.7 C70.8,98.8 70.2,98.5 68.8,98.5 L66.4,98.5 L66.2,98.7 L66.2,103.4 L69.5,103.4 L69.6,102.4 L70.3,102.3 L70.3,105.5 L69.5,105.5 L69.5,104.2 L66.4,104.2 L66.2,104.4 L66.2,108.3 C66.2,108.8 66.1,109.3 66.1,109.3 L68.9,109.3 C70.4,109.3 70.7,109 71.6,107.1 L72.2,107.1 L71.5,110 L66,110 C65.1,110 63.4,110.1 63.4,110.1 L63.4,109.3 Z" id="Shape" fill="#272361"></path>
                        <path d="M75.7,109.3 C76.5,109.2 77,108.8 77,108.2 L77,99.6 C77,98.7 76.9,98.6 75.5,98.3 L75.5,97.8 L79.7,97.8 C82.9,97.8 84.2,99.1 84.2,100.7 C84.2,102.4 82.7,103.5 81.8,104 L81.8,104.2 L84.4,108 C85.2,109.1 85.5,109.2 86,109.2 L86.2,109.2 L86.1,109.8 L83.5,109.8 L83.4,109.7 C83.4,109.7 83,108.8 82.3,107.7 L80.1,104.4 L78.8,104.4 L78.6,104.6 L78.6,108.1 C78.6,108.6 78.5,109 78.5,109 L80.1,109.2 L80,109.7 L75.7,109.8 L75.7,109.3 Z M80.1,103.8 C81.2,103.8 82.4,102.9 82.4,101.2 C82.4,99.8 81.6,98.5 79.4,98.5 L78.7,98.5 L78.5,98.7 L78.5,103.8 L80.1,103.8 Z" id="Shape" fill="#272361"></path>
                        <path d="M94.6,109.3 C95.4,109.2 95.9,108.8 95.9,108.1 L95.9,99.5 C95.9,98.6 95.9,98.5 94.6,98.2 L94.6,97.7 L96,97.7 C97.6,97.7 98,97.6 98,97.6 L98.1,97.7 C98.1,97.7 97.5,98.4 97.5,99.9 L97.5,103.2 L104.2,103.2 L104.4,103 L104.4,99.4 C104.4,98.5 104.4,98.4 103.1,98.1 L103.1,97.6 L104.5,97.6 C106.1,97.6 106.5,97.5 106.5,97.5 L106.6,97.6 C106.6,97.6 106,98.3 106,99.8 L106,107.9 C106,108.4 105.9,108.9 105.9,108.9 L107.5,109.1 L107.4,109.6 L103.1,109.7 L103.1,109.1 C103.9,109 104.4,108.6 104.4,108 L104.4,103.9 L97.7,103.9 L97.5,104.1 L97.5,108 C97.5,108.5 97.4,109 97.4,109 L99,109.2 L98.9,109.7 L94.6,109.8 L94.6,109.3 Z" id="Shape" fill="#272361"></path>
                        <path d="M110.9,109.3 C111.7,109.2 112.2,108.8 112.2,108.2 L112.2,99.6 C112.2,98.7 112.1,98.6 110.7,98.3 L110.7,97.8 L118.1,97.8 C118.8,97.8 119.4,97.7 119.4,97.7 L118.8,100.7 L118.2,100.7 C118.3,98.8 117.7,98.5 116.3,98.5 L113.9,98.5 L113.7,98.7 L113.7,103.4 L117,103.4 L117.1,102.4 L117.8,102.3 L117.8,105.5 L117,105.5 L117,104.2 L113.9,104.2 L113.7,104.4 L113.7,108.3 C113.7,108.8 113.6,109.3 113.6,109.3 L116.4,109.3 C117.9,109.3 118.2,109 119.1,107.1 L119.7,107.1 L119,110 L113.4,110 C112.5,110 110.8,110.1 110.8,110.1 L110.8,109.3 L110.9,109.3 Z" id="Shape" fill="#272361"></path>
                        <path d="M122,109.3 C122.8,109.2 123.1,108.8 123.2,108.5 L127.5,97.9 L128.2,97.7 L132.2,107.9 C132.7,109.1 133,109.2 133.6,109.3 L133.5,109.8 L132.7,109.8 C132,109.8 130,109.9 130,109.9 L130,109.3 C130.5,109.3 131,109.1 130.8,108.6 L129.7,105.7 L125.4,105.7 L125.2,105.9 L124,109.1 L125.5,109.3 L125.4,109.8 L122,109.8 L122,109.3 Z M127.5,99.7 L125.5,104.9 L129.4,104.9 L127.9,100.8 C127.7,100.5 127.5,100 127.5,99.7 Z" id="Shape" fill="#272361"></path>
                        <path d="M136.3,109.3 C137.1,109.2 137.5,108.8 137.5,108.2 L137.5,99.6 C137.5,98.7 137.5,98.6 136.2,98.3 L136.2,97.8 L137.6,97.8 C139.2,97.8 139.6,97.7 139.6,97.7 L139.7,97.8 C139.7,97.8 139.1,98.5 139.1,100 L139.1,108.1 C139.1,108.6 139,109.1 139,109.1 L142,109.1 C143.5,109.1 143.8,108.5 144.7,106.5 L145.3,106.5 L144.6,109.8 L138.8,109.8 C137.9,109.8 136.3,109.9 136.3,109.9 L136.3,109.3 Z" id="Shape" fill="#272361"></path>
                        <path d="M149.7,109.3 C150.5,109.2 151,108.8 151,108.1 L151,98.5 L149.2,98.5 C148,98.5 147.4,98.9 146.7,100.7 L146.1,100.7 L146.7,97.7 C146.7,97.7 147.2,97.8 147.9,97.8 L156.3,97.8 C157,97.8 157.6,97.7 157.6,97.7 L157,100.7 L156.4,100.7 C156.5,98.8 155.9,98.5 154.5,98.5 L152.7,98.5 L152.5,98.7 L152.5,108.1 C152.5,108.6 152.4,109.1 152.4,109.1 L154.2,109.3 L154.1,109.8 L149.6,109.9 L149.6,109.3 L149.7,109.3 Z" id="Shape" fill="#272361"></path>
                        <path d="M160.4,109.3 C161.2,109.2 161.7,108.8 161.7,108.1 L161.7,99.5 C161.7,98.6 161.7,98.5 160.4,98.2 L160.4,97.7 L161.8,97.7 C163.4,97.7 163.8,97.6 163.8,97.6 L163.9,97.7 C163.9,97.7 163.3,98.4 163.3,99.9 L163.3,103.2 L170,103.2 L170.2,103 L170.2,99.4 C170.2,98.5 170.2,98.4 168.9,98.1 L168.9,97.6 L170.3,97.6 C171.9,97.6 172.3,97.5 172.3,97.5 L172.4,97.6 C172.4,97.6 171.8,98.3 171.8,99.8 L171.8,107.9 C171.8,108.4 171.7,108.9 171.7,108.9 L173.3,109.1 L173.2,109.6 L168.9,109.7 L168.9,109.1 C169.7,109 170.2,108.6 170.2,108 L170.2,103.9 L163.5,103.9 L163.3,104.1 L163.3,108 C163.3,108.5 163.2,109 163.2,109 L164.8,109.2 L164.7,109.7 L160.4,109.8 L160.4,109.3 Z" id="Shape" fill="#272361"></path>
                        <path d="M48.4,124.4 C48.4,123.8 48.6,123.3 49,122.9 C49.4,122.5 50.1,122.3 51,122.3 C51.6,122.3 52.3,122.5 52.9,122.8 L52.9,123.6 C52.3,123.3 51.7,123.1 51.1,123.1 C50.5,123.1 50,123.2 49.7,123.4 C49.4,123.6 49.2,123.9 49.2,124.4 C49.2,124.7 49.3,124.9 49.5,125.1 C49.7,125.3 50,125.4 50.3,125.5 C50.6,125.6 50.9,125.7 51.3,125.8 C51.7,125.9 52,126.1 52.3,126.2 C52.6,126.3 52.9,126.6 53.1,126.9 C53.3,127.2 53.4,127.6 53.4,128.1 C53.4,128.7 53.2,129.2 52.7,129.6 C52.2,130 51.6,130.1 50.7,130.1 C49.9,130.1 49.1,129.9 48.4,129.6 L48.4,128.7 C49,129.1 49.7,129.3 50.6,129.3 C51.9,129.3 52.5,128.9 52.5,128.1 C52.5,127.8 52.4,127.5 52.2,127.2 C52,127 51.7,126.8 51.4,126.7 L50.4,126.4 C50,126.3 49.7,126.2 49.4,126 C49.1,125.9 48.8,125.7 48.6,125.4 C48.4,125.1 48.4,124.8 48.4,124.4 Z" id="Shape" fill="#0074CF"></path>
                        <path d="M56.6,126.2 C56.6,123.6 57.8,122.3 60.1,122.3 C62.5,122.3 63.6,123.6 63.6,126.2 C63.6,128.8 62.4,130.1 60.1,130.1 C57.8,130.1 56.6,128.8 56.6,126.2 Z M58.1,123.8 C57.7,124.3 57.4,125.1 57.4,126.2 C57.4,127.3 57.6,128.1 58.1,128.6 C58.5,129.1 59.2,129.4 60.2,129.4 C61.1,129.4 61.8,129.2 62.3,128.6 C62.7,128.1 62.9,127.3 62.9,126.2 C62.9,125.1 62.7,124.3 62.3,123.8 C61.9,123.3 61.2,123 60.2,123 C59.2,123 58.5,123.3 58.1,123.8 Z" id="Shape" fill="#0074CF"></path>
                        <polygon id="Shape" fill="#0074CF" points="67.3 130 67.3 122.4 68.1 122.4 68.1 129.2 72 129.2 72 130"></polygon>
                        <path d="M75.3,126.8 L75.3,122.3 L76.1,122.3 L76.1,126.8 C76.1,128.4 76.9,129.2 78.4,129.2 C79.9,129.2 80.7,128.4 80.7,126.8 L80.7,122.3 L81.5,122.3 L81.5,126.8 C81.5,127.8 81.2,128.6 80.7,129.2 C80.2,129.7 79.4,130 78.4,130 C77.4,130 76.6,129.7 76.1,129.2 C75.6,128.7 75.3,127.9 75.3,126.8 Z" id="Shape" fill="#0074CF"></path>
                        <polygon id="Shape" fill="#0074CF" points="84.8 123.2 84.8 122.4 91 122.4 91 123.2 88.3 123.2 88.3 130 87.5 130 87.5 123.2"></polygon>
                        <polygon id="Shape" fill="#0074CF" points="94.3 130 94.3 122.4 95.1 122.4 95.1 130"></polygon>
                        <path d="M98.8,126.2 C98.8,123.6 100,122.3 102.3,122.3 C104.7,122.3 105.8,123.6 105.8,126.2 C105.8,128.8 104.6,130.1 102.3,130.1 C100,130.1 98.8,128.8 98.8,126.2 Z M100.3,123.8 C99.9,124.3 99.6,125.1 99.6,126.2 C99.6,127.3 99.8,128.1 100.3,128.6 C100.7,129.1 101.4,129.4 102.4,129.4 C103.3,129.4 104,129.2 104.5,128.6 C104.9,128.1 105.1,127.3 105.1,126.2 C105.1,125.1 104.9,124.3 104.5,123.8 C104.1,123.3 103.4,123 102.4,123 C101.4,123 100.7,123.3 100.3,123.8 Z" id="Shape" fill="#0074CF"></path>
                        <polygon id="Shape" fill="#0074CF" points="109.5 130 109.5 122.4 110.4 122.4 114.9 128.8 114.9 122.4 115.7 122.4 115.7 130 114.8 130 110.2 123.6 110.2 130"></polygon>
                        <path d="M119.5,124.4 C119.5,123.8 119.7,123.3 120.1,122.9 C120.5,122.5 121.2,122.3 122.1,122.3 C122.7,122.3 123.4,122.5 124,122.8 L124,123.6 C123.4,123.3 122.8,123.1 122.2,123.1 C121.6,123.1 121.1,123.2 120.8,123.4 C120.5,123.6 120.3,123.9 120.3,124.4 C120.3,124.7 120.4,124.9 120.6,125.1 C120.8,125.3 121.1,125.4 121.4,125.5 C121.7,125.6 122,125.7 122.4,125.8 C122.8,125.9 123.1,126.1 123.4,126.2 C123.7,126.3 124,126.6 124.2,126.9 C124.4,127.2 124.5,127.6 124.5,128.1 C124.5,128.7 124.3,129.2 123.8,129.6 C123.3,130 122.7,130.1 121.8,130.1 C121,130.1 120.2,129.9 119.5,129.6 L119.5,128.7 C120.1,129.1 120.8,129.3 121.7,129.3 C123,129.3 123.6,128.9 123.6,128.1 C123.6,127.8 123.5,127.5 123.3,127.2 C123.1,127 122.8,126.8 122.5,126.7 L121.5,126.4 C121.1,126.3 120.8,126.2 120.5,126 C120.2,125.9 119.9,125.7 119.7,125.4 C119.6,125.1 119.5,124.8 119.5,124.4 Z" id="Shape" fill="#0074CF"></path>
                    </g>
                </g>
            </g>
        </g>
    </g>
</svg>