<?xml version="1.0" encoding="utf-8"?>
<!-- Generator: Adobe Illustrator 24.3.0, SVG Export Plug-In . SVG Version: 6.00 Build 0)  -->
<svg version="1.1" id="Layer_1" xmlns="http://www.w3.org/2000/svg" xmlns:xlink="http://www.w3.org/1999/xlink" x="0px" y="0px"
	 viewBox="0 0 2056.5 307.6" style="enable-background:new 0 0 2056.5 307.6;" xml:space="preserve">
<style type="text/css">
	.st0{fill:#FFFFFF;}
</style>
<g>
	<path class="st0" d="M355,130.1c-8.9-4.7-20.7-9.7-35.6-15.2c-14.8-5.4-24.1-9.9-28-13.3c-3.8-3.4-5.7-7.1-5.7-10.9c0-5,2.7-9,8-12
		c5.3-3,12.4-4.5,21.4-4.5c15.8,0,36.9,6,63.5,17.9V53c-23.8-10.3-46.4-15.5-67.8-15.5c-23.2,0-41.8,5.3-55.6,15.8
		c-13.9,10.6-20.8,24.5-20.8,41.7c0,13.3,3.2,24.2,9.5,32.7c6.4,8.5,13.9,15.1,22.6,19.6c8.7,4.6,20.6,9.6,35.6,14.9
		c15,5.3,24.4,9.9,28.3,13.6c3.9,3.7,5.9,7.7,5.9,11.9c0,12.3-9.8,18.5-29.4,18.5c-11.6,0-22.5-2.1-32.8-6.2
		c-10.3-4.1-22.2-10.7-35.6-19.6v43.2c23.3,12.9,47.4,19.4,72.3,19.4c23,0,41.6-5.5,55.7-16.5c14.1-11,21.1-25.8,21.1-44.3
		c0-13-3.2-23.8-9.7-32.3C371.6,141.4,363.9,134.8,355,130.1z"/>
	<path class="st0" d="M496.7,40.1h-89.3v200.3h49.9v-80.4H497c20.4,0,36.4-5.9,48.2-17.8c11.8-11.9,17.7-26.1,17.7-42.7
		c0-16.1-6-30-17.9-41.7C533.1,46,517,40.1,496.7,40.1z M480.5,123.2h-23.2V76.8H475c13.4,0,22.8,1.7,28.4,5.1
		c5.5,3.4,8.3,9.4,8.3,18.1C511.7,115.5,501.3,123.2,480.5,123.2z"/>
	<polygon class="st0" points="969.8,40.1 915,40.1 851.3,130.3 851.3,40.1 801.4,40.1 801.4,240.4 851.3,240.4 851.3,146.5 
		930.7,240.4 993.1,240.4 904.6,134.3 	"/>
	<polygon class="st0" points="1057.9,155.5 1149.3,155.5 1149.3,118.8 1057.9,118.8 1057.9,76.8 1153.7,76.8 1153.7,40.1 1008,40.1 
		1008,240.4 1155.7,240.4 1155.7,203.7 1057.9,203.7 	"/>
	<path class="st0" d="M1294.7,130.1c-8.9-4.7-20.7-9.7-35.6-15.2c-14.8-5.4-24.1-9.9-28-13.3c-3.8-3.4-5.7-7.1-5.7-10.9
		c0-5,2.7-9,8-12c5.3-3,12.4-4.5,21.4-4.5c15.8,0,36.9,6,63.5,17.9V53c-23.8-10.3-46.4-15.5-67.8-15.5c-23.2,0-41.8,5.3-55.6,15.8
		c-13.9,10.6-20.8,24.5-20.8,41.7c0,13.3,3.2,24.2,9.5,32.7c6.4,8.5,13.9,15.1,22.6,19.6c8.7,4.6,20.6,9.6,35.6,14.9
		c15,5.3,24.4,9.9,28.3,13.6c3.9,3.7,5.9,7.7,5.9,11.9c0,12.3-9.8,18.5-29.4,18.5c-11.6,0-22.5-2.1-32.8-6.2
		c-10.3-4.1-22.2-10.7-35.6-19.6v43.2c23.3,12.9,47.4,19.4,72.3,19.4c23,0,41.6-5.5,55.7-16.5c14.1-11,21.1-25.8,21.1-44.3
		c0-13-3.2-23.8-9.7-32.3C1311.2,141.4,1303.6,134.8,1294.7,130.1z"/>
	<polygon class="st0" points="1453.5,114.4 1389.1,40.1 1345.7,40.1 1345.7,240.4 1395.6,240.4 1395.6,115.4 1449.7,178.2 
		1457.2,178.2 1511.3,115.4 1511.3,240.4 1561.2,240.4 1561.2,40.1 1517.8,40.1 	"/>
	<polygon class="st0" points="1978.3,40.1 1978.3,162.5 1871.4,40.1 1825.7,40.1 1825.7,240.4 1875.5,240.4 1875.5,112.1 
		1986.1,240.4 2028.2,240.4 2028.2,40.1 	"/>
	<path class="st0" d="M1660.5,40.1l-80.9,200.3h52.9l15-27.3h89.7l16.5,27.3h53.6l-89-200.3H1660.5z M1696.9,158.4l-31.4,18.1v-36.3
		V104l31.4,18.1l31.4,18.1L1696.9,158.4z"/>
	<g>
		<g>
			<path class="st0" d="M85.3,113.3v10.3H64.9v46h-14v-46H30.5v-10.3H85.3z"/>
			<path class="st0" d="M145.9,113.3v56.3h-14v-22.8h-28v22.8h-14v-56.3h14v22.6h28v-22.6H145.9z"/>
			<path class="st0" d="M196,159.3v10.3h-41.5v-56.3h40.9v10.3h-26.9v11.8h25.7v10.3h-25.7v13.5H196z"/>
		</g>
		<rect x="30.5" y="78" class="st0" width="165.3" height="12.3"/>
		<rect x="30.5" y="194.8" class="st0" width="165.3" height="12.3"/>
	</g>
	<path class="st0" d="M680.6,37.5c-55,0.8-99.8,45.8-100.3,100.8c-0.5,54.4,41.6,99.1,95,102.6c0,0,0,0,0,0c0-4.6,0-16.9,0-17.3
		c0,0,0,0,0,0c-29.5-3.4-52.5-28.5-52.6-58.9c0-3.2,2.2-6.2,5.4-6.8c4.4-0.9,8.3,2.4,8.3,6.7c0,25.2,20.5,45.8,45.8,45.8
		c25.2,0,45.7-20.4,45.8-45.6c0-4,3.5-7.3,7.5-7c3.5,0.3,6.2,3.2,6.2,6.8c0,30.5-22.8,55.6-52.4,59c0,0,0,0,0,0l0.1,47.7
		c0,0,0,0,0,0l0,0c0,0,0,0.1,0,0.1c0,2.1,1.7,3.8,3.8,3.8c0.9,0,1.7-0.3,2.4-0.9l0,0l0.1-0.1c0.1-0.1,0.1-0.1,0.2-0.2l38.8-38
		c34.1-33.7,49.3-57.8,49.3-96.6C783.9,82.6,737.5,36.7,680.6,37.5z M717.2,119.8C717.2,119.8,717.2,119.8,717.2,119.8l-17.8,0
		c-1.4,0-2.7,0.9-2.9,2.3c-0.3,1.8,1,3.4,2.8,3.4h17.9c0,0,0,0,0,0v10.8c0,0,0,0,0,0h-17.8c-1.4,0-2.7,0.9-2.9,2.3
		c-0.3,1.8,1,3.4,2.8,3.4h17.9c0,0,0,0,0,0v18.5c0,18-13.3,33.6-31.2,35.5c-21,2.3-39-14.3-39-34.9V142c0,0,0,0,0,0h17.8
		c1.4,0,2.7-0.9,2.9-2.3c0.3-1.8-1-3.4-2.8-3.4H647c0,0,0,0,0,0v-10.8c0,0,0,0,0,0h17.8c1.4,0,2.7-0.9,2.9-2.3
		c0.3-1.8-1-3.4-2.8-3.4H647c0,0,0,0,0,0V118c0-18,13.3-33.6,31.2-35.5c21-2.3,39,14.3,39,34.9V119.8z"/>
</g>
</svg>
