<svg width="1516" height="1387" viewBox="0 0 1516 1387" fill="none" xmlns="http://www.w3.org/2000/svg">
<path d="M1333 594.405C1333 427.924 1280.22 293.348 1175.24 191.836C1070.26 90.3237 931.633 59 759.95 59C587.107 59 447.905 90.3237 342.343 191.836C236.781 293.348 184 427.344 184 594.405C184 760.305 236.781 894.301 342.343 996.393C439.785 1090.36 565.647 1124.59 719.929 1129.23V1069.48C719.929 1067.16 719.929 1064.84 719.929 1061.94C552.887 1042.8 422.964 900.681 422.964 728.981C422.964 707.518 440.365 690.116 461.825 690.116C483.285 690.116 500.686 707.518 500.686 728.981C500.686 871.098 616.688 987.112 758.79 987.112C900.893 987.112 1016.89 871.098 1016.89 728.981C1016.89 707.518 1034.29 690.116 1055.76 690.116C1077.22 690.116 1094.62 707.518 1094.62 728.981C1094.62 900.681 967.043 1042.8 800 1061.94C800 1064.26 800 1066.58 800 1069.48V1129.23C800.58 1129.23 798.811 1129.23 799.971 1129.23V1310.79C799.971 1325.87 817.371 1333.41 828.391 1323.55L1153.78 1016.12C1161.32 1009.73 1168.28 1003.35 1175.24 996.393C1179.3 992.332 1182.78 988.272 1186.84 984.792L1189.16 982.471C1284.86 882.119 1333 752.764 1333 594.405ZM758.79 907.062C649.748 907.062 561.007 817.731 561.007 709.258V601.365H668.308C673.528 601.365 678.169 596.725 678.169 591.504V579.323C678.169 574.102 673.528 569.461 668.308 569.461H561.007V508.554H668.308C673.528 508.554 678.169 503.914 678.169 498.693V486.511C678.169 481.291 673.528 476.65 668.308 476.65H561.007V462.729C561.007 353.676 650.328 264.925 758.79 264.925C867.252 264.925 956.573 354.256 956.573 462.729V476.65H849.272C844.051 476.65 839.411 481.291 839.411 486.511V498.693C839.411 503.914 844.051 508.554 849.272 508.554H956.573V569.461H849.272C844.051 569.461 839.411 574.102 839.411 579.323V591.504C839.411 596.725 844.051 601.365 849.272 601.365H956.573V708.678C956.573 817.731 867.832 907.062 758.79 907.062Z" fill="white"/>
</svg>
