<svg width="331" height="49" viewBox="0 0 331 49" fill="none" xmlns="http://www.w3.org/2000/svg">
<path d="M57.1385 20.7246C55.706 19.9759 53.8067 19.1794 51.4085 18.3033C49.0264 17.4431 47.5296 16.7262 46.9019 16.1846C46.2902 15.643 45.9844 15.0536 45.9844 14.4483C45.9844 13.6518 46.419 13.0146 47.2721 12.5367C48.1251 12.0588 49.2679 11.8199 50.7165 11.8199C53.2595 11.8199 56.6556 12.7756 60.937 14.6713V8.44275C57.1063 6.80198 53.4687 5.97363 50.0244 5.97363C46.2902 5.97363 43.2965 6.81791 41.0754 8.49054C38.8381 10.1791 37.7275 12.3933 37.7275 15.1333C37.7275 17.2519 38.2426 18.9883 39.2566 20.3423C40.2867 21.6963 41.4938 22.7477 42.8941 23.4645C44.2944 24.1973 46.2098 24.9938 48.6241 25.8381C51.0384 26.6823 52.5513 27.4151 53.179 28.0045C53.8067 28.5939 54.1287 29.2311 54.1287 29.9002C54.1287 31.8595 52.5513 32.8472 49.3966 32.8472C47.5296 32.8472 45.7752 32.5126 44.1174 31.8595C42.4596 31.2064 40.5442 30.155 38.3874 28.7373V35.619C42.1377 37.6739 46.0166 38.7093 50.0244 38.7093C53.7263 38.7093 56.72 37.8332 58.9894 36.0809C61.2589 34.3286 62.3855 31.971 62.3855 29.024C62.3855 26.9531 61.8705 25.2327 60.8243 23.8787C59.8103 22.5247 58.571 21.4733 57.1385 20.7246Z" fill="#2EC86C"/>
<path d="M79.9454 6.3877H65.5723V38.295H73.6038V25.4875H79.9937C83.2771 25.4875 85.8524 24.5476 87.7516 22.652C89.6509 20.7564 90.6005 18.4943 90.6005 15.85C90.6005 13.2853 89.6348 11.0711 87.7194 9.20727C85.8041 7.32755 83.2127 6.3877 79.9454 6.3877ZM77.3379 19.6253H73.6038V12.2339H76.4527C78.6095 12.2339 80.1224 12.5047 81.0238 13.0463C81.909 13.588 82.3597 14.5437 82.3597 15.9296C82.3597 18.3987 80.6858 19.6253 77.3379 19.6253Z" fill="#2EC86C"/>
<path d="M156.092 6.3877H147.272L137.019 20.7564V6.3877H128.988V38.295H137.019V23.337L149.799 38.295H159.842L145.598 21.3935L156.092 6.3877Z" fill="#2EC86C"/>
<path d="M170.272 24.7707H184.983V18.9244H170.272V12.2339H185.692V6.3877H162.241V38.295H186.013V32.4488H170.272V24.7707Z" fill="#2EC86C"/>
<path d="M208.386 20.7246C206.954 19.9759 205.054 19.1794 202.656 18.3033C200.274 17.4431 198.777 16.7262 198.149 16.1846C197.538 15.643 197.232 15.0536 197.232 14.4483C197.232 13.6518 197.667 13.0146 198.52 12.5367C199.373 12.0588 200.515 11.8199 201.964 11.8199C204.507 11.8199 207.903 12.7756 212.185 14.6713V8.44275C208.354 6.80198 204.716 5.97363 201.272 5.97363C197.538 5.97363 194.544 6.81791 192.323 8.49054C190.086 10.1791 188.975 12.3933 188.975 15.1333C188.975 17.2519 189.49 18.9883 190.504 20.3423C191.534 21.6963 192.741 22.7477 194.142 23.4645C195.542 24.1973 197.457 24.9938 199.872 25.8381C202.286 26.6823 203.799 27.4151 204.427 28.0045C205.054 28.5939 205.376 29.2311 205.376 29.9002C205.376 31.8595 203.799 32.8472 200.644 32.8472C198.777 32.8472 197.023 32.5126 195.365 31.8595C193.707 31.2064 191.792 30.155 189.635 28.7373V35.619C193.385 37.6739 197.264 38.7093 201.272 38.7093C204.974 38.7093 207.968 37.8332 210.237 36.0809C212.506 34.3286 213.633 31.971 213.633 29.024C213.633 26.9531 213.118 25.2327 212.072 23.8787C211.042 22.5247 209.819 21.4733 208.386 20.7246Z" fill="#2EC86C"/>
<path d="M233.945 18.2235L223.58 6.3877H216.595V38.295H224.626V18.3828L233.334 28.3867H234.541L243.249 18.3828V38.295H251.28V6.3877H244.295L233.945 18.2235Z" fill="#2EC86C"/>
<path d="M318.414 6.3877V25.8857L301.208 6.3877H293.852V38.295H301.868V17.8571L319.669 38.295H326.445V6.3877H318.414Z" fill="#2EC86C"/>
<path d="M267.263 6.3877L254.242 38.295H262.756L265.17 33.9462H279.608L282.264 38.295H290.891L276.566 6.3877H267.263V6.3877ZM273.122 25.2326L268.068 28.1159V22.3334V16.5668L273.122 19.4501L278.175 22.3334L273.122 25.2326Z" fill="#2EC86C"/>
<path d="M13.7294 18.0483V19.6891H10.446V27.0168H8.19262V19.6891H4.90918V18.0483H13.7294Z" fill="#2EC86C"/>
<path d="M23.4831 18.0483V27.0168H21.2298V23.3848H16.7231V27.0168H14.4697V18.0483H16.7231V21.6485H21.2298V18.0483H23.4831V18.0483Z" fill="#2EC86C"/>
<path d="M31.5467 25.376V27.0168H24.8672V18.0483H31.4502V19.6891H27.1205V21.5688H31.257V23.2096H27.1205V25.3601H31.5467V25.376Z" fill="#2EC86C"/>
<path d="M31.5147 12.425H4.90918V14.3844H31.5147V12.425Z" fill="#2EC86C"/>
<path d="M31.5147 31.031H4.90918V32.9904H31.5147V31.031Z" fill="#2EC86C"/>
<path d="M109.545 5.97356C100.692 6.101 93.4816 13.2694 93.4011 22.0308C93.3206 30.6966 100.097 37.8172 108.692 38.3747C108.692 37.642 108.692 35.6826 108.692 35.6189C103.944 35.0773 100.242 31.0789 100.226 26.2362C100.226 25.7265 100.58 25.2486 101.095 25.153C101.803 25.0096 102.431 25.5353 102.431 26.2203C102.431 30.2346 105.73 33.5162 109.802 33.5162C113.858 33.5162 117.158 30.2665 117.174 26.2522C117.174 25.615 117.737 25.0893 118.381 25.1371C118.944 25.1849 119.379 25.6468 119.379 26.2203C119.379 31.0789 115.709 35.0773 110.945 35.6189L110.961 43.2174V43.2333C110.961 43.5678 111.235 43.8387 111.573 43.8387C111.718 43.8387 111.846 43.7909 111.959 43.6953L111.975 43.6794C111.991 43.6634 111.991 43.6634 112.007 43.6475L118.252 37.5942C123.741 32.2258 126.187 28.3868 126.187 22.206C126.171 13.1579 118.703 5.84613 109.545 5.97356ZM115.436 19.0838H112.571C112.345 19.0838 112.136 19.2271 112.104 19.4502C112.056 19.7369 112.265 19.9918 112.555 19.9918H115.436V21.7122H112.571C112.345 21.7122 112.136 21.8556 112.104 22.0786C112.056 22.3653 112.265 22.6202 112.555 22.6202H115.436V25.5672C115.436 28.4346 113.295 30.9196 110.414 31.2223C107.034 31.5886 104.137 28.9443 104.137 25.6628V22.6202H107.002C107.227 22.6202 107.436 22.4768 107.468 22.2538C107.517 21.9671 107.307 21.7122 107.018 21.7122H104.137V19.9918H107.002C107.227 19.9918 107.436 19.8484 107.468 19.6254C107.517 19.3386 107.307 19.0838 107.018 19.0838H104.137V18.797C104.137 15.9297 106.277 13.4446 109.158 13.142C112.538 12.7756 115.436 15.4199 115.436 18.7015V19.0838Z" fill="#2EC86C"/>
</svg>
